<?xml version="1.0" encoding="UTF-8"?>
<svg width="328px" height="49px" viewBox="0 0 328 49" version="1.1" xmlns="http://www.w3.org/2000/svg" xmlns:xlink="http://www.w3.org/1999/xlink">
    <title>2DAF97B0-3424-4E6B-BE56-23990BAC31FB</title>
    <g id="Page-1" stroke="none" stroke-width="1" fill="none" fill-rule="evenodd">
        <g id="2021-Home" transform="translate(-237.000000, -245.000000)" fill="#FFB900">
            <g id="Group-4" transform="translate(0.000000, 101.000000)">
                <g id="Group-4-Copy" transform="translate(166.000000, 76.000000)">
                    <g id="Group-2" transform="translate(0.000000, 42.000000)">
                        <path d="M331.514886,68.5384475 C331.481886,68.5454475 331.453886,68.5534475 331.422886,68.5604475 C331.568886,68.4284475 331.634886,68.3814475 331.514886,68.5384475 L331.514886,68.5384475 Z M328.3105,68.519 C328.3185,68.506 328.3205,68.496 328.3305,68.481 L328.6895,68.507 C328.5545,68.508 328.4275,68.512 328.3105,68.519 L328.3105,68.519 Z M301.378,69.4780678 C301.465,69.4880678 301.544,69.5050678 301.622,69.5210678 C301.468,69.5260678 301.399,69.5090678 301.378,69.4780678 L301.378,69.4780678 Z M269,72.5795 C269.339982,72.5265 269.67815,72.4735 270,72.4205 C269.700816,72.4845 269.377153,72.5425 269,72.5795 L269,72.5795 Z M261.463254,72.810089 C258.701267,72.0561235 262.123365,72.0368322 260.308059,70.9709918 L258.341105,71.7603246 L259.268829,71.8696416 C258.96888,72.9419124 256.224734,71.7635398 256.472276,73.0721282 C254.4741,72.0657691 253.880892,72.6798732 251.683122,71.7378182 C251.162392,72.1863393 251.969691,72.1992001 252.58966,72.2715422 C251.475722,72.2233141 251.414394,73.4949276 249.955905,72.7264937 C249.215509,72.5544802 249.726204,73.6363966 251.034161,73.6219282 C249.916878,73.5737001 248.847542,73.7875113 247.610948,73.6412194 L248.874303,74.4755651 L247.569691,74.4916411 L248.668018,74.961061 C246.173644,75.094492 243.314648,74.9240861 242,73.8309165 C244.155398,72.9772796 247.749214,73.3180914 248.996959,71.9307305 C248.518601,71.5320451 247.270857,72.9210136 246.641967,71.7378182 L245.9852,72.5126826 C245.224734,72.7634685 243.46964,73.068913 243.316878,72.284403 C244.94151,71.8407047 245.629498,71.3246644 246.356513,70.800586 L246.387734,71.4580954 C246.841561,69.615783 248.825241,71.9982498 248.815205,70.0096456 C248.875418,70.0064304 248.933401,70.0032152 248.992499,70 C249.287988,70.2459632 249.688292,70.2700772 250.098632,70.2395328 C250.070755,70.408331 249.906842,70.5803445 249.86447,70.6687626 C250.582565,70.950093 251.235986,70.9291942 251.867106,70.7909404 C251.887177,70.9886755 251.871566,71.2410691 251.806893,71.5690199 C253.884237,71.7072737 255.333806,70.6237497 257.187025,70.2620392 C257.756817,70.5706989 258.643284,70.7250287 258.191688,70.9758147 C259.111607,71.0819164 259.782869,70.8279152 260.391688,70.5063948 C261.112012,71.7153118 262.498023,72.0641615 264,72.1702632 C263.423517,72.5303662 262.806893,72.8792159 261.463254,72.810089 L261.463254,72.810089 Z M206.78541,73.9848943 L203.788141,73.581571 C204.296894,73.5226586 204.3602,73.3353474 204.603067,73.2009063 C202.536977,73.8006042 201.786508,73.0422961 200.233776,74 C199.248499,73.6132931 201.764639,73.3625378 200.68728,73.223565 C201.278907,73.1223565 201.848664,72.6903323 202.306772,72.2265861 C202.264184,72.3882175 202.222747,72.5377644 202.183612,72.6570997 L202.387344,72.1465257 C202.602585,71.9199396 202.797108,71.6903323 202.936382,71.4864048 C202.771786,71.4622356 202.626757,71.4501511 202.493238,71.4425982 C202.610642,70.918429 202.732651,70.3444109 202.858113,69.8096677 L203.643112,69.570997 C203.414058,69.6193353 203.153926,69.641994 202.897248,69.641994 C202.999689,69.2129909 203.104432,68.826284 203.209175,68.5407855 C204.263514,68.5347432 205.140595,68.6918429 206.265147,68 C206.254787,69.439577 206.822243,69.6601208 206.265147,70.4833837 C206.153497,70.4682779 206.10055,70.4425982 206.069472,70.4093656 C205.446768,71.1888218 204.117334,72.0347432 203.086016,72.223565 C206.726708,72.6963746 205.788622,72.1933535 208.982716,72.5377644 C209.262415,73.3700906 206.04415,73.4259819 206.78541,73.9848943 L206.78541,73.9848943 Z M199,72.7567153 C199.713277,72.2056792 199.397746,72.3944743 200.875408,72 C201.139831,72.3914045 200.956512,72.4742901 200.577653,72.8257866 C200.642093,72.8457406 200.683201,72.8503454 200.739863,72.8649271 C200.545434,72.9217191 200.298787,72.9693016 199.957702,73 L199,72.7567153 Z M198.436,73.5345 C198.458,73.5095 198.478,73.4875 198.499,73.4655 C198.534,73.4865 198.558,73.5085 198.564,73.5295 C198.515,73.5365 198.482,73.5295 198.436,73.5345 L198.436,73.5345 Z M191.140964,69.7532468 C190.198795,70.4823748 191.075904,70.487013 189.079518,71 C188.372289,70.6864564 187.877108,70.2263451 187.771084,69.7866419 C187.056627,70.2337662 185.163855,70.4090909 183.083133,70.3766234 L183.975904,70.135436 C183.6,70.1113173 183.283133,70.1141002 183,70.1298701 C183.022892,70.0760668 183.045783,70.0176252 183.06506,69.9489796 L184.304819,69.6326531 C185.344578,69.6632653 186.391566,69.7059369 187.448193,69.7690167 C187.453012,69.8664193 187.445783,69.9443414 187.553012,69.7884972 C187.539759,69.7820037 187.53012,69.7773655 187.519277,69.7717996 C187.603614,69.7773655 187.686747,69.7801484 187.771084,69.7857143 C187.76506,69.7615955 187.757831,69.7374768 187.754217,69.7142857 C188.8,69.8497217 188.43012,69.4842301 188.644578,69.3265306 C189.437349,69.3988868 190.298795,69.3831169 190.26506,69.7476809 C190.777108,69.4768089 191.812048,69.2393321 192.539759,69 L193,69.471243 L191.140964,69.7532468 Z M181,71.6365 L181.214612,71.0775 C181.447489,71.1005 181.73242,71.3835 182,71.5865 C181.702283,71.6915 181.469406,71.8225 181.231963,71.9225 C181.290411,71.8205 181.193607,71.7585 181,71.6365 L181,71.6365 Z M147,65.7695 L147.004368,65.7625 C147.090644,65.7285 147.163815,65.6835 147.228249,65.6305 C148.00364,65.4625 148.261376,65.2445 148.072443,65.0455 L148.466691,65.0375 L150,65.9625 L148.756098,65.9495 C148.130324,65.8785 147.522024,65.8075 147,65.7695 L147,65.7695 Z M136.331682,65.841 C136.331682,65.841 136.408472,65.738 136.621501,65.699 C134.664602,65.702 134.179093,65.73 133,65.789 C133.037156,65.575 133.117662,65.379 133.276195,65.205 L134.166708,65.19 L134.413178,65.338 L134.829329,65.178 L135.896953,65.159 C136.079019,65.365 135.889522,65.53 135.889522,65.617 C136.519941,65.458 137.240773,65.425 138,65.45 C137.457518,65.569 136.901412,65.698 136.331682,65.841 L136.331682,65.841 Z M100.083727,59.7283624 C100.081353,59.7113624 100.081353,59.6983624 100.078188,59.6823624 L100.039417,59.7433624 C100.031504,59.7453624 100.022009,59.7483624 100.014888,59.7513624 C99.9840289,59.6403624 100.00381,59.5573624 100.049703,59.4903624 C100.038625,59.3363624 100.082145,59.2143624 100.338511,59.2573624 L100.288662,59.3333624 C100.380448,59.3083624 100.489641,59.2983624 100.603581,59.2943624 C100.658969,59.3463624 100.76658,59.4003624 101,59.4543624 C100.787944,59.5743624 100.347215,59.6463624 100.083727,59.7283624 L100.083727,59.7283624 Z M98.4973227,51.7845 C98.3163227,51.5505 97.9633227,51.2365 98.2793227,51.2155 L98.8473227,51.4825 C98.7533227,51.6045 98.6423227,51.7105 98.4973227,51.7845 L98.4973227,51.7845 Z M179,28.3347608 C177.069654,28.5067608 177.574548,29.0427608 175.873494,28.9727608 C175.778614,28.4527608 174.494352,28.9487608 173.434864,28.9817608 L174.182605,28.6197608 L173,28.4287608 C174.246988,27.8307608 178.271461,27.9637608 179,28.3347608 L179,28.3347608 Z M178,31.8555 C177.364871,31.5385 176.152693,31.8555 176,31.1855 C176.593911,31.1605 177.180328,31.1485 177.761124,31.1445 C177.726464,31.1545 177.68993,31.1655 177.665574,31.1705 C177.777049,31.2085 177.946604,31.3565 178,31.8555 L178,31.8555 Z M193,29.1278463 C192.953206,29.3278463 192.745234,29.5118463 192.785789,29.6318463 C191.834315,29.7898463 190.889081,29.9298463 190,29.8878463 C190.927556,29.5918463 191.554593,28.9778463 193,29.1278463 L193,29.1278463 Z M199.925466,29.429 C199.106832,29.51 198.263354,29.59 197.350311,29.666 C197.237267,29.597 197.11677,29.547 197,29.489 C198.059627,29.397 199.209938,29.377 200,29.334 L199.925466,29.429 Z M203,29.348527 C202.038696,29.453527 201.04087,29.554527 200,29.653527 C201.856087,29.369527 202.403913,29.336527 203,29.348527 L203,29.348527 Z M220.973908,29.1788542 C221.581434,29.2838542 221.87476,29.3648542 222,29.4358542 C220.822302,29.7158542 219.599561,29.9518542 218,29.7528542 C218.758034,29.4868542 219.289756,29.1238542 220.973908,29.1788542 L220.973908,29.1788542 Z M226.385819,29 C227.535975,29.3733075 228.189781,29.377176 229,29.4574468 C228.88634,29.5473888 228.82586,29.7088975 228.855057,30 C228.11366,29.3085106 226.104275,30.2717602 226,29.3762089 C226.280501,29.3297872 226.452555,29.229207 226.385819,29 L226.385819,29 Z M235.024694,27.8948646 L233.679568,27.3447311 L235.069809,27.3351912 L233.900392,27.0256748 C236.556215,26.9376958 239.600261,27.0500545 241,27.7708461 C238.705093,28.3336995 234.878666,28.1089821 233.55016,29.0226914 C234.05948,29.2855684 235.387985,28.3707991 236.056393,29.1509499 L236.755669,28.6400359 C237.565357,28.4736179 239.435237,28.2732802 239.597887,28.7905541 C239.04464,28.8838331 238.593494,28.9824119 238.211207,29.0841707 L238.270569,28.8605133 L238.010566,29.14353 C237.065535,29.4148868 236.532471,29.7085034 235.821323,30 C235.742966,29.9597205 235.701413,29.8728015 235.721596,29.6915436 L236.100321,29.4625863 L231.054612,29.1880495 L231,28.4672579 C231.356168,28.3273396 231.758637,28.2478405 232.527959,28.4990576 C233.316277,28.6114162 232.773715,27.8980446 231.381099,27.9086445 C232.570699,27.9393841 233.709248,27.7994657 235.024694,27.8948646 L235.024694,27.8948646 Z M241.736683,31.3314767 C241.754683,31.4624767 241.683683,31.5814767 241.423683,31.6624767 C241.354683,31.6744767 241.303683,31.6674767 241.260683,31.6514767 C241.276683,31.6334767 241.276683,31.6214767 241.296683,31.6024767 C241.192683,31.4504767 241.393683,31.3494767 241.736683,31.3314767 L241.736683,31.3314767 Z M253.42,29.527 C253.495,29.492 253.551,29.445 253.588,29.387 L253.644,29.58 C253.549,29.591 253.457,29.601 253.356,29.613 C253.378,29.585 253.394,29.556 253.42,29.527 L253.42,29.527 Z M276,28.1795 C275.950886,28.3745 275.900162,28.5955 275.848633,28.8205 C275.620777,28.8075 275.352663,28.7865 275.012087,28.7515 C274.907418,28.4575 275.503225,28.3105 276,28.1795 L276,28.1795 Z M276.7235,28.4479672 C276.6165,28.5099672 276.4795,28.5539672 276.2765,28.5519672 C276.4415,28.5169672 276.5965,28.4829672 276.7235,28.4479672 L276.7235,28.4479672 Z M279,28.183 C278.981398,28.201 278.959077,28.22 278.941715,28.236 C278.637889,28.291 278.541161,28.382 278.332824,28.452 C278.486597,28.425 278.619288,28.411 278.76066,28.391 C278.472956,28.618 278.327863,28.592 277.152244,28.956 L277.132402,28.956 C276.881901,28.521 277.010872,28.368 277.318418,28.044 L279,28.183 Z M294.590411,29.2185 C294.735616,29.2805 294.872603,29.3465 295,29.4165 L293.547945,29.7685 C293.353425,29.7555 293.173973,29.7655 293,29.7815 C293.173973,29.6225 293.506849,29.4835 294.590411,29.2185 L294.590411,29.2185 Z M301.5915,29.3935 C301.5405,29.4725 301.5965,29.5285 301.7225,29.6065 C301.5725,29.5815 301.4255,29.5525 301.2775,29.5245 C301.3835,29.4785 301.4875,29.4325 301.5915,29.3935 L301.5915,29.3935 Z M330.977845,31.0589888 C330.764845,31.4812734 330.735845,31.5617978 330.593845,31.6638577 C330.443845,31.6423221 330.274845,31.6273408 330.065845,31.6348315 L330.112845,31.9784644 C330.100845,31.9868914 330.093845,31.9906367 330.080845,32 C329.956845,31.5262172 330.041845,31.4222846 330.218845,31 L330.977845,31.0589888 Z M333,31.1999904 L332.964338,31.7269904 C332.535432,31.9229904 332.283872,31.8939904 332.003396,31.8349904 C331.99183,31.6019904 332.009179,31.3599904 332.065082,31.1209904 L333,31.1999904 Z M341.6135,32.404 L341.5705,32.596 C341.5135,32.587 341.4515,32.53 341.3865,32.453 C341.4635,32.437 341.5395,32.42 341.6135,32.404 L341.6135,32.404 Z M382.906,42.4354716 C382.739,42.6324716 382.447,42.5964716 382.094,42.4304716 C382.385,42.4494716 382.646,42.4504716 382.906,42.4354716 L382.906,42.4354716 Z M162.880963,66.8835 L162.966563,66.7845 L160,66.8945 L160.620597,66.1055 L163,66.7045 L163,66.8465 C162.958538,66.8595 162.922425,66.8705 162.880963,66.8835 L162.880963,66.8835 Z M103.7015,60.5445 C103.5565,60.5255 103.4235,60.4945 103.2985,60.4555 C103.4265,60.4785 103.5625,60.5105 103.7015,60.5445 L103.7015,60.5445 Z M374.515,39.5415 L374.423,39.4585 C374.476,39.4615 374.528,39.4625 374.577,39.4635 C374.575,39.5045 374.56,39.5355 374.515,39.5415 L374.515,39.5415 Z M381.25,42.391 C381.453,42.422 381.619,42.445 381.75,42.46 C381.694,42.515 381.623,42.563 381.56,42.609 C381.458,42.54 381.354,42.467 381.25,42.391 L381.25,42.391 Z M159.9745,66.542 L159.3565,66.722 C159.3825,66.319 159.1165,66.386 159.0255,66.278 C159.3165,66.331 159.6365,66.424 159.9745,66.542 L159.9745,66.542 Z M384.511233,51.195 C384.598233,51.432 384.815233,51.782 384.638233,51.805 L384.294233,51.496 C384.350233,51.368 384.419233,51.262 384.511233,51.195 L384.511233,51.195 Z M231.2295,29.6 C231.4415,29.558 231.6085,29.479 231.7705,29.4 C231.6285,29.546 231.4395,29.597 231.2295,29.6 L231.2295,29.6 Z M398.451505,59.3162043 C398.451505,59.3162043 396.893779,58.504843 395.147371,57.4971845 C395.077164,57.3859495 395.013538,57.2799491 394.959786,57.1791832 C396.10614,57.5861725 395.262555,56.9959726 395.036575,56.4921434 L394.959786,56.8651079 C394.274167,56.5 394.274167,55.5538432 393.930809,55.2921137 C393.930809,55.3680153 393.940682,55.4596206 393.950555,55.5538432 L393.994435,55.4269044 C394.027344,55.5944113 394.007599,55.7095722 393.971398,55.8051035 C393.980174,56.0066352 393.947264,56.1649815 393.760776,56.1087097 L393.796977,56.0105611 C393.509565,56.1479691 393.014823,55.9987833 392.799813,55.9320423 L392.795425,55.1429279 C392.543117,55.8875483 391.701726,55.3300645 390.834007,54.5736663 C392.904027,54.9531741 391.336428,54.3721347 390.911893,53.8748487 L390.76709,54.2478132 C390.546595,54.1863067 390.374368,54.1038619 390.218595,54.0148739 C389.954221,53.7688482 389.70301,53.5332917 389.475933,53.33176 C389.267505,53.0517095 389.104054,52.7925973 388.808963,52.674819 C388.808963,52.7245476 388.823224,52.7860541 388.834194,52.8449432 C388.780441,52.8200789 388.732174,52.8017578 388.692682,52.7991405 C388.101405,51.9393592 387.386167,52.7415601 386.651184,52.6591153 L386.650087,52.5256332 C386.621565,52.5701273 386.575492,52.5949916 386.538194,52.630325 C386.459211,52.612004 386.37913,52.5923743 386.300147,52.5465716 C385.005699,52.3057805 385.536642,51.4891845 385.015572,50.8243917 C385.159278,50.8688857 385.328214,50.9657256 385.539933,51.1515535 C385.024348,49.654461 386.21897,50.2538214 386.050033,49.49088 C386.119144,49.676708 386.276013,49.9528326 386.402167,50.2093274 C387.215037,50.0352773 388.747532,49.6165102 389.12709,48.8470255 C389.12709,48.8470255 388.226462,47.954528 387.255625,46.8801286 C387.848,46.6982266 388.339452,46.4849171 388.578595,46.2297308 C388.578595,46.2297308 387.02087,45.4183695 385.274462,44.410711 C385.204254,44.299476 385.140629,44.1934756 385.086876,44.0927097 C386.233231,44.499699 385.389645,43.9094991 385.163666,43.4056699 L385.086876,43.7786344 C384.401258,43.4135217 384.401258,42.4673697 384.0579,42.2056402 C384.0579,42.2815418 384.067773,42.3731471 384.077645,42.4673697 L384.121525,42.3404309 C384.154435,42.5079378 384.134689,42.6230987 384.098488,42.71863 C384.107264,42.9201617 384.074355,43.078508 383.887866,43.0222362 L383.924067,42.9240876 C383.636656,43.0614956 383.141913,42.9123098 382.926903,42.8455688 L382.923612,42.2187267 C383.135331,42.199097 383.348147,42.1663808 383.57303,42.1048744 C382.846823,41.9622318 383.780361,41.7070456 382.631813,41.457094 C383.072803,41.2215374 384.238903,41.1299321 384.192829,40.9179312 C383.818756,41.0173884 383.560963,41.2005991 382.907157,40.9297091 C384.142368,40.7033131 385.429137,40.688918 386.695064,41.022623 C386.64899,41.1220802 386.523933,41.2189201 386.37913,41.3105255 C388.024615,40.5711397 390.495037,40.7635109 391.597512,39.9050382 L391.110448,39.7336054 C390.713338,39.9704706 389.90705,39.9966435 389.586729,39.7767908 C390.82194,39.5517034 388.710234,38.9968369 390.015652,38.6395762 C391.813619,38.2600685 393.409739,39.1800476 394.390448,38.2352042 C392.682435,38.1396729 390.376562,37.6332264 389.683264,38.0519935 L390.785739,38.0899443 L388.268147,39.2323935 C388.171612,38.8070831 386.047839,39.5006662 386.089525,38.811009 C386.956147,38.6879962 387.747077,38.695848 388.425017,38.6251811 C388.263759,38.3294268 386.10598,38.4655261 385.194381,38.3765381 L386.34293,38.6264897 C384.291559,39.1892081 381.671946,39.0020715 379.683104,39.4313079 C381.247411,38.8895279 377.695358,38.9588862 378.949217,38.3883159 C379.459318,38.0232033 380.284254,38.5872303 380.047304,38.428884 C380.204174,37.816437 378.831839,38.3058711 378.429244,37.8517705 C378.218622,38.2495993 376.186997,38.4655261 377.38491,38.9287873 C376.982314,38.7612804 376.286823,38.9287873 375.602301,38.9863678 C375.45311,38.7259469 375.448722,38.4079456 375.339023,38.0899443 C377.43208,37.434312 379.519652,36.7603586 380.591411,36.4672216 L380.073632,36.8323342 C381.65988,35.9450713 383.259291,36.8663591 384.890515,36.195023 C384.822502,36.3271963 384.63711,36.3782336 384.940977,36.4057152 C386.956147,36.5352713 387.75695,35.2946736 389.37501,35.8704784 L389.173164,36.2643813 C389.310288,36.21727 390.266863,35.8927254 390.077084,35.4530199 C388.720107,35.5982798 388.463411,35.7801817 387.25014,35.6610948 C387.747077,35.3025255 388.828709,35.0028452 389.624027,35.0002279 L389.711786,34.3066448 C390.734181,33.5738023 391.774127,34.6482018 392.792134,33.9166679 L391.597512,33.4507895 C391.631518,33.4206906 391.72586,33.4036782 391.801552,33.3801225 C391.260736,33.4507895 390.794515,33.5423948 390.667264,33.7072843 C388.868201,34.0841748 387.944535,33.0922201 387.65493,32.717947 C386.812441,32.4941683 387.957699,31.8437705 387.855679,31.4171515 C386.50309,31.5624113 386.580977,32.3332046 385.225097,32.4771558 C384.868575,32.3855505 384.992535,32.2455253 385.152696,32.1696237 L384.246582,32.5216498 C384.19612,32.3070317 381.875987,32.149994 383.249418,31.6592512 C383.454555,31.6801896 383.834114,31.6592512 384.128107,31.6893501 C382.235799,31.1894468 378.964575,30.639815 379.067692,29.8624784 C378.035425,29.689737 378.322836,30.0679361 376.679545,29.8363055 C375.917137,30.3859374 376.73988,30.9525817 374.945204,31.3307808 L376.360321,31.6055967 C376.65212,31.4995963 376.894555,31.3634969 377.212682,31.2758176 L375.738328,31.3412499 C376.669672,31.0847551 376.504027,30.7903094 376.778274,30.2616159 C379.045753,30.2079613 379.668843,31.1685085 380.818488,31.4223861 C380.114221,31.8398446 378.899853,31.719449 379.35291,32.3881678 C378.218622,31.7927333 378.095759,32.9613554 376.778274,32.4130321 L377.031679,32.2324388 C375.963211,32.7506631 375.816214,32.1120432 374.933137,32.580539 C375.000054,32.4483656 374.881579,32.3672295 374.768589,32.2860933 C372.848856,32.5844649 375.349993,32.691774 373.424776,33.3369371 C371.716763,33.2361713 372.869699,32.238982 372.39909,31.9157461 C375.265525,31.0167054 372.34095,30.7981613 375.44214,30.0627015 C375.430074,29.1597348 374.213512,29.0393392 372.55596,29.1545002 C373.636495,29.5379339 371.868147,30.476234 373.304107,31.1030761 C370.826007,31.5545595 371.033338,33.3094556 368.263438,32.4836991 L368.331452,32.350217 L367.192776,33.0032321 L365.62408,32.6394281 C366.596013,31.6919674 367.792829,32.1578459 368.557431,31.608214 C366.648669,30.658136 365.994863,32.5399709 363.793204,32.4614521 C361.961231,31.3792007 366.034355,31.8450792 366.024482,30.9434211 C365.582395,31.1802863 364.381191,30.7144079 364.523799,30.4500611 C366.583946,30.7903094 365.777659,29.8807995 368.074756,30.3807028 C366.954729,30.6882349 368.245886,30.6751484 368.036361,31.0742859 C368.364361,30.7562846 370.514462,30.6188766 372.03489,30.7706797 C372.381538,30.1085041 370.717405,30.2236651 369.757538,29.9226762 C367.939826,30.6463582 366.056294,29.3494887 364.658729,30.1844057 C362.697311,30.2707764 364.511732,29.5470944 364.393258,29.4659583 C362.631492,29.1545002 363.628656,30.0155902 363.068094,30.1687019 C360.407893,30.6699138 360.110609,29.3913654 358.213913,29.3455627 C356.636441,30.2341343 352.794783,29.9266022 350.104963,29.8703303 C350.429672,29.556255 350.073151,29.3128465 349.910796,29.0170922 C348.309191,30.2524553 348.88511,29.7499348 346.883104,30.5272713 L348.576856,30.9695941 C347.218783,31.1148539 346.126181,31.9798698 344.88,31.3006819 C346.042809,32.0989568 344.488375,32.1840188 343.113846,32.2991798 C342.71893,32.101574 342.351438,31.8555483 342.012468,31.5715719 C343.065579,31.24441 344.007893,30.9185568 345.457017,30.8033959 C343.727064,30.320505 342.658595,30.8020872 341.594515,31.1619653 C341.493592,31.0546562 341.37402,30.9709027 341.281873,30.8531245 L341.201793,31.2875954 C340.993365,31.3477932 340.781645,31.3975218 340.563344,31.430238 C340.383438,31.1449528 340.215599,30.9800633 340.108094,31.4511763 C339.715371,31.4616455 339.300709,31.426312 338.821324,31.2640397 L339.769124,32.0884876 L339.320455,32.4261186 C339.162488,32.3934024 339.026462,32.4549088 338.893726,32.5203412 C338.609605,32.5007115 338.357298,32.4274272 338.153258,32.238982 L338.34194,32.1879448 L337.945926,32.1630805 C337.942635,32.0112774 337.949217,31.8725608 337.895465,32.1081173 C337.909726,32.1303643 337.921793,32.1447594 337.93386,32.1630805 L336.326769,32.061006 L336.571398,30.9748287 C335.186997,30.5599875 333.484468,31.3648056 333.961659,31.6893501 C332.508147,31.4092996 333.364896,31.2836695 333.154274,30.7772229 C333.973726,30.4395919 335.737686,29.5039091 336.242301,30.3859374 C336.123826,30.3048012 335.817766,30.2747023 335.747559,30.4068757 C339.531077,30.9015444 336.981672,29.0890678 338.869592,28.8116346 C337.885592,28.7344244 337.151706,28.2096568 336.099692,28.4975592 C335.612629,28.5211149 333.627077,28.9503512 332.625525,29.3377108 C334.001151,28.8469681 334.707612,29.3324763 335.78705,29.7172186 C334.872161,29.6269219 334.72297,30.2367516 333.938622,29.8821081 L334.194221,29.6988975 L333.194863,30.0875658 C333.108201,29.7185272 332.216348,29.685811 331.761097,29.5798106 C331.773164,29.5470944 331.777552,29.5117609 331.790716,29.4790448 C331.774261,29.5169955 331.765485,29.5405512 331.751224,29.5771933 C331.424321,29.4986745 331.335465,29.3822049 331.971719,29.0655122 C330.763933,29.1937596 331.325592,29.5510204 330.600482,29.7865769 C330.011398,29.3468714 330.217632,30.5063329 329.666943,30.4696908 C329.637324,30.6830003 329.606609,30.9211741 329.57699,31.1645825 L328.92099,30.9185568 C329.136,31.4250034 327.799866,31.2247803 327.42689,31.3268548 C326.464829,31.0245573 327.08792,29.8363055 325.454502,30.5089502 L325.57188,30.5900864 C324.637244,30.8465812 324.083264,30.999693 322.744936,30.7981613 C322.817338,30.6672966 323.185926,30.5639134 323.369124,30.5141848 C321.793846,30.183097 319.433124,30.9394952 318.208883,30.5220367 C318.247278,30.3754682 318.319679,30.2328256 318.478742,30.1032695 L318.128803,30.5010983 C317.931344,30.4225795 317.760214,30.3178877 317.639545,30.1582327 C317.79093,29.5510204 318.57089,29.9043551 318.611478,29.2133893 C321.496562,30.120282 320.633231,28.0931872 324.032803,28.6323499 C324.189672,30.1778624 326.899237,27.7333092 327.546462,29.2565747 C326.211425,29.0563517 324.440883,29.9920345 324.676736,30.1556154 C325.905365,30.0692447 327.626542,30.0365285 328.483291,30.1961835 C327.729659,29.6910456 327.970997,28.8404249 328.518395,28.3117313 C326.532843,28.739659 322.923746,27.6940498 320.113258,27.5566418 L320.428094,28.4870901 C318.000455,29.1545002 320.723184,27.6168396 318.828682,27.567111 L317.991679,28.2502249 L317.872107,28.1690888 L316.481124,29.0040058 C317.464027,28.9621291 317.012067,28.2934103 318.092602,28.6768439 C319.053565,28.9791415 318.052013,29.3665011 317.776669,29.8965033 C317.120669,29.6216873 314.781886,29.8114412 316.225525,29.188525 L313.66186,30.116356 C313.679411,29.7708731 314.239973,29.6164527 314.49996,29.4358594 L312.649338,29.5994403 L312.716254,29.4685756 C311.416321,29.8245277 309.668816,29.8742563 308.486261,30.3139618 C308.209819,30.2511467 307.91802,30.183097 307.606475,30.1098128 L308.047465,30.635889 C307.40792,30.8321861 306.771666,31.02194 306.318609,30.9185568 C306.348227,30.4055671 306.745338,29.8048979 307.756763,29.4685756 C308.277833,30.0064296 309.606288,29.303686 310.5859,29.2618093 C309.322167,28.9281042 308.929445,29.374353 307.941057,29.4175383 C308.639839,29.0013885 306.62796,28.873141 306.648803,28.5276581 C306.780441,28.2620027 307.194007,27.4702711 308.463224,27.8026675 C310.357726,27.8484702 308.660682,28.6532883 309.220147,28.5001765 C309.722569,29.3835135 311.862796,28.3444475 313.011344,28.5957078 C313.132013,28.6768439 312.755746,28.7789184 312.569258,28.8299557 C313.557645,28.7867703 315.636441,28.784153 315.788923,28.1730147 L313.317405,28.6258067 C312.77988,28.4347442 314.08091,28.0748662 313.308629,27.7215314 C312.745873,27.8733345 312.072321,27.9466187 311.341726,27.8079021 L311.478849,27.5435553 C309.980361,27.0488866 307.638288,27.2360232 305.912722,27.4833575 C305.607759,28.5525224 304.980281,29.2971428 304.356094,30.2747023 C303.741779,30.20927 303.131853,30.1242079 302.533993,30.0155902 C303.75604,29.8192931 304.371452,29.1152408 303.707773,28.6532883 L303.258007,28.8888448 L302.318983,28.2397557 C302.066676,29.1283273 300.605485,29.032796 299.234247,29.0969197 C298.99291,29.0000798 298.764736,28.8914621 298.54095,28.7815357 C299.263866,28.2842497 299.997753,27.8406183 300.962007,28.3876329 L300.817204,27.7463957 C301.983304,27.6534817 302.927813,28.3012621 303.575037,27.6704941 L302.216963,27.815754 L302.24,27.4702711 C301.27794,27.5121478 300.051505,28.0539278 299.16404,27.6704941 C298.763639,27.8890382 298.374207,28.1717061 297.811452,28.375855 C297.733565,28.3274351 297.646903,28.2855584 297.572308,28.2358298 L297.487839,28.4766209 C297.08305,28.5865473 296.58392,28.6480537 295.959732,28.6323499 C295.830288,28.5551397 295.708522,28.517189 295.598823,28.5485965 L295.631732,28.4870901 C294.216615,29.66749 291.689151,27.7568648 290.619585,28.2750892 C290.00198,29.4646496 292.915585,28.7776098 293.622047,29.2644266 C292.741164,29.7329223 291.798849,29.0851419 292.554676,29.7839596 C292.2179,29.8755649 291.964495,29.9069724 291.758261,29.9030465 C291.650756,29.8559352 291.53996,29.7944288 291.421485,29.7106753 L291.421485,29.7106753 C291.419291,29.7067494 291.416,29.7067494 291.416,29.7067494 C291.354569,29.6622554 291.289846,29.6164527 291.227318,29.5614895 C291.227318,29.5994403 291.232803,29.6321565 291.237191,29.663564 C291.140656,29.6373911 291.059478,29.6203787 290.980495,29.6033663 C290.707344,29.370427 290.50111,29.1531916 289.629003,29.5693414 L290.243318,29.7617126 C290.21699,29.8598611 290.218087,29.9750221 290.181886,30.0692447 C289.989913,30.1359857 289.785873,30.1804797 289.573057,30.20927 C289.41509,30.1817884 289.225311,30.1372944 288.977391,30.0600842 C288.621967,29.6321565 288.42012,29.9933432 288.178783,30.4435179 C288.040562,30.4919378 287.907826,30.5508269 287.790448,30.635889 C287.769605,30.7890008 287.816776,30.8714455 287.893565,30.9277174 C287.689525,31.2208544 287.432829,31.4393985 287.057659,31.3451759 L285.94202,29.5758847 C283.929043,28.561683 283.584589,30.3349001 280.668789,30.3414434 C280.017177,30.0469977 279.532308,29.5601809 279.283291,28.9935366 C279.443452,28.943808 279.602515,28.9006226 279.752803,28.8757583 C279.556441,28.8535113 279.377632,28.8338816 279.208696,28.8155606 C279.106676,28.5158803 279.068281,28.1965704 279.113258,27.8707172 C280.502047,27.6796547 281.21509,28.04215 282.472241,27.3380977 C283.410167,27.6718028 281.012147,27.8903469 282.040027,28.0107424 C281.169017,28.1455331 280.314462,28.9555858 279.896508,29.5156869 C282.146435,29.8035893 281.174502,28.5996337 283.089846,28.3012621 L284.520321,28.9281042 C285.385846,28.8050914 284.238395,28.5512138 284.186836,28.3418302 C285.239946,28.1638542 285.639251,28.6218807 286.435666,28.6310413 C286.202007,28.4674604 285.664482,28.2750892 285.798314,28.0107424 C287.11909,28.557757 288.42012,28.2018049 289.645458,29.2212412 C288.9379,28.7357331 290.452843,27.9819522 291.015599,27.8275318 L288.49691,26.8185647 C285.29699,27.1300228 283.303759,26.6576011 279.849338,27.1509611 L280.053378,26.754441 C274.612308,25.5269298 275.53707,28.6716093 270.882542,28.7017082 C270.755291,27.7176054 268.730247,28.8378076 268.905766,27.8838036 C270.31101,27.949236 270.025793,27.5775802 269.625391,27.1208622 C268.810328,27.4571846 268.279385,28.1690888 266.706301,27.8079021 C267.286609,27.3093075 265.903304,26.8944662 267.444575,26.7007864 C265.314221,26.4914029 264.143732,26.5830082 263.055518,27.4467154 C259.57806,28.2894843 262.014475,26.3762419 258.560054,26.8709106 L259.066863,26.5005634 L256.916763,26.6379714 L257.624321,27.1260968 L255.080401,27.7084449 C253.517191,28.2489162 255.717753,28.3261264 255.514809,28.7239552 L256.041365,28.0107424 C257.069244,28.1808666 258.519465,27.5605677 258.734475,28.0657056 C257.054983,28.1730147 257.456482,28.7344244 256.789512,29.0184009 L258.39002,28.7278812 L258.91109,29.2644266 C260.500629,29.2801304 261.723773,29.4005259 262.671572,28.7985481 C262.014475,28.5276581 261.599813,29.3193898 261.012923,28.9150178 C261.79398,28.019903 263.763077,27.9361495 265.676227,27.6364693 C265.726689,27.8484702 266.334421,27.9099766 266.076629,28.0918786 C266.037137,28.1730147 265.702555,28.1651628 265.516067,28.1298293 C265.66087,28.5276581 264.592401,28.784153 266.392562,29.0249441 C265.837485,29.5667241 264.770114,30.413419 264.510127,30.7785316 C262.58491,29.7800336 260.903224,30.4932465 258.927545,31.0010016 C258.518368,31.0167054 258.210114,30.9565076 258.15307,30.7170252 C257.649552,30.8570504 256.350716,31.0297919 257.26012,31.3281635 C257.061565,31.3517191 256.860816,31.3700402 256.654582,31.3792007 L257.059371,30.4631476 C256.008455,29.5536377 256.770863,31.8738694 255.5181,31.4184601 L255.455572,30.2930234 C255.181324,30.6607533 254.955344,30.8256429 254.758983,30.8583591 C254.361873,30.4068757 253.935144,30.0954177 255.590502,29.4934399 C255.514809,29.5143782 254.79299,29.61907 253.617017,29.7813423 C253.554488,29.7002062 253.489766,29.622996 253.421753,29.5549463 C253.664187,29.5693414 253.818863,29.5536377 253.862742,29.7433915 C254.766662,28.9281042 253.436013,28.7252639 252.025284,28.6585229 L251.690702,29.3023774 C251.504214,29.2461055 251.33089,29.1859078 251.16305,29.1244013 C251.203639,28.6990909 251.358314,28.2711633 251.454849,27.9479274 L250.571773,28.9045486 C250.493886,28.8757583 250.413806,28.8482767 250.334823,28.8221038 L250.171371,27.8079021 C249.599839,28.9124005 249.44297,28.2803238 248.869244,28.1690888 L250.139559,27.3642706 L250.602488,26.7832312 L248.177043,27.4467154 C248.500656,27.1326401 247.331264,27.2268627 247.841365,26.8604414 C247.65707,26.91017 246.790448,27.0358002 247.026301,27.1967638 L247.521043,27.1771341 C246.241953,28.0918786 247.016428,28.4439047 244.895946,29.1414137 C245.784508,29.507835 246.335197,29.3966 246.814582,29.1610435 L246.784963,29.4908226 L244.846582,30.7183338 C244.507612,30.5678394 244.178515,30.4251968 243.766047,30.6411236 L244.467023,30.075788 C243.712294,30.2851715 243.287759,30.2262824 242.955371,30.0679361 C243.080428,29.7146013 243.026676,29.3193898 242.278528,28.9555858 C243.185739,29.0419565 243.304214,29.121784 243.932789,28.8378076 L243.018997,28.7475109 C244.374876,28.6035597 246.448187,27.6953584 246.418569,27.1378746 C246.003906,27.9309149 245.13509,27.1509611 244.404495,27.0096272 C244.96396,26.8552068 246.153097,26.4181186 245.241498,26.3278219 C244.917886,26.6445146 242.440883,27.0946893 244.198261,27.4048387 C243.453405,27.611605 242.45295,27.9989646 241.608268,27.7764946 C242.60214,27.3891349 241.948334,27.1182449 242.225873,26.5882428 C241.342796,27.0554299 241.371318,27.6129136 241.228709,27.878569 C238.702341,27.2137762 237.677753,25.7938938 234.832161,26.3487603 C234.458087,26.4495261 236.557726,26.1014259 236.286769,26.6288108 C234.207973,27.5370121 233.581592,25.6721896 231.780334,26.0516973 L232.286047,26.9337257 C231.726582,27.0855288 230.366314,27.2307886 229.694957,27.3053815 C229.523826,27.0096272 227.600803,26.4050321 229.02689,26.1289075 C225.934475,25.6159178 226.290997,28.0107424 222.747719,27.7333092 C224.386622,27.9636311 224.575304,27.9125939 225.864268,27.9008161 C224.989967,28.2122741 225.141351,28.2881757 225.328936,28.4569912 C224.964736,28.4844728 224.613699,28.5342014 224.276923,28.6087943 C223.386167,28.539436 222.62705,28.5957078 223.827157,28.1167429 C222.72907,28.0787921 220.529605,28.0015819 220.020602,28.3680032 L220.982662,28.6716093 C219.827532,28.6585229 218.69105,28.9424993 217.903411,29.3390195 C217.837592,29.3233157 217.782742,29.3220071 217.715826,29.3023774 C217.238635,28.6362759 216.457579,28.2947189 215.549271,28.1101996 C216.19101,28.1115083 216.940254,28.1586196 217.584187,28.1324466 C216.646261,27.7961243 217.189271,27.5134564 217.872696,27.2085416 C217.995559,27.184986 218.077833,27.1404919 218.135973,27.0894547 C218.214957,27.0528126 218.289552,27.0174791 218.367438,26.980837 L218.190823,26.9821456 C218.20289,26.8944662 218.164495,26.7910831 218.036147,26.6471319 C216.799839,26.8722192 215.855331,26.2257474 215.058916,26.2165869 C215.845458,27.474197 212.348254,26.5071066 211.347799,26.8944662 L210.192669,27.0174791 L209.760455,27.0200964 C209.673793,26.8813798 209.796656,26.709947 210.454849,26.4599953 C209.905258,26.7086383 208.07109,26.6222676 208.240027,27.025331 L204.053913,27.043652 C203.924468,26.9926148 203.793926,26.9284911 203.697391,26.8381944 C203.552589,26.9167132 203.527358,26.9821456 203.547104,27.0449607 L185.308548,27.1260968 C186.20808,27.225554 186.986943,27.5121478 187.9139,27.6521731 C186.521819,28.4870901 189.435425,27.8026675 189.027344,28.5917819 C188.400963,28.8783756 187.484977,28.7893876 186.939773,28.5970164 C186.764254,28.9398821 187.314943,29.2513401 187.413672,29.6347738 L186.802649,30.3754682 C185.128642,29.0419565 182.733913,30.1255165 180.344669,29.7067494 C181.913365,29.66749 183.502903,29.5575636 185.196656,29.1911423 C182.239171,28.4164231 187.135037,28.5459792 186.205886,27.5553332 L184.596602,27.8838036 L184.733726,27.6168396 L182.770114,27.7032103 C183.172709,28.1599282 183.475478,28.1887185 183.387719,28.6663748 C180.76701,28.4805468 182.561686,28.0997305 180.639759,27.496444 L177.709699,27.5828147 L177.946649,27.4388635 C177.699826,27.4506414 177.591224,27.5095305 177.506756,27.5880493 L167.63604,27.8851123 C165.839171,28.2659287 168.628816,28.7462022 167.303652,29.4489459 C169.136722,29.4476372 171.750849,29.8402314 172.471572,29.2840563 L172.810542,30.2262824 L171.251719,29.9894172 L171.669672,29.7224532 C164.89905,32.8200214 161.839545,28.3928675 155.481391,31.222163 C156.324977,29.6988975 154.228629,32.0217466 154.145258,30.3571471 C153.957672,30.1124301 153.773378,29.9357627 153.591278,29.8075152 C153.624187,29.7983547 153.665873,29.7905028 153.68891,29.7839596 L153.8381,28.2672373 C152.508548,28.5276581 152.496482,29.214698 153.131639,29.5915884 C152.893592,29.530082 152.659933,29.5392425 152.430662,29.6099095 C152.210167,29.4214643 152.24198,29.144031 151.67703,29.6557122 C151.683612,29.7669472 151.762595,29.8336882 151.871197,29.8834168 C151.173512,30.3309742 150.51093,31.0912983 149.860415,31.3674229 C149.860415,31.448559 149.84396,31.5440903 149.769365,31.6736464 L147.471171,31.4734233 C148.843505,29.3691184 145.815813,33.2191589 147.076254,31.4289293 C141.084495,29.8546265 133.265151,31.4590282 126.327786,30.7327289 L126.632749,31.2732003 C124.873177,31.1698171 122.685779,31.8267581 121.350742,30.9630509 C120.014609,30.0993436 118.430555,32.3358219 117.912776,32.4221926 C116.449391,33.3539496 115.118742,31.5022136 115.747318,31.5977448 C114.18301,31.8555483 112.711946,33.7779513 110.541003,32.9521948 C109.798341,31.1685085 104.618355,34.703165 104.553632,32.6930827 L104.529498,32.8618982 C101.749726,31.4472504 99.1268227,33.8551615 96.1320401,32.5739957 C96.1320401,32.5739957 96.1890836,32.4261186 96.2900067,32.2900193 L91.1977793,37.3872007 C90.2598528,37.0639648 89.1979666,36.6399631 87.9814047,36.0759361 L87.9814047,35.9188984 C87.6545017,35.9450713 87.6566957,36.261764 87.0061806,35.8403795 L88.6308227,36.8100872 C87.6566957,37.207916 86.8065284,37.9643142 85.5087893,38.0716233 C85.2334448,37.8962645 85.1391037,37.57172 85.1127759,37.3178424 L81.929311,37.5834978 L80.954087,36.5601356 C79.9810569,37.115002 80.4253378,39.2729615 77.8221806,38.0703146 C78.8039866,39.5687158 76.5310234,38.9693553 76.8524415,39.7309881 C76.7218997,39.5464688 76.4224214,39.2690356 76.1832776,39.0138494 C74.6354247,39.1865908 71.7207224,39.6066666 71,40.3761512 C71,40.3761512 77.0553846,43.5286827 78.6833177,45.1304671 C76.5046957,44.7234777 78.109592,45.3136777 78.5385151,45.8175069 L78.6833177,45.4445424 C79.9898328,45.809655 79.9898328,46.7558071 80.6414448,47.0175365 C80.6414448,46.941635 80.621699,46.848721 80.6041472,46.7558071 L80.5207759,46.8814372 C80.4582475,46.715239 80.4955452,46.5987694 80.5646555,46.5045468 C80.5492977,46.3030151 80.6096321,46.1433601 80.9650569,46.199632 L80.8959465,46.2990891 C81.4422475,46.1616812 82.3834649,46.3095583 82.7926421,46.3762993 L82.8014181,47.1667223 C83.7678662,45.6630865 89.3043746,49.4607811 90.6043077,49.5105097 C91.9086288,50.5063904 93.527786,49.264484 95.1568161,49.7630787 C97.6425953,50.0064871 96.5653512,50.8387868 97.6118796,51.5075056 C97.3134983,51.480024 96.9438127,51.3753322 96.47101,51.1567881 C97.4528161,52.6551893 95.1798528,52.0558288 95.5012709,52.8174616 C95.3707291,52.6329423 95.0712508,52.3555091 94.832107,52.1003229 C93.2842542,52.2730643 90.3695518,52.6931401 89.6488294,53.4626247 C89.6488294,53.4626247 95.704214,56.6151562 97.3321472,58.2169406 C95.1535251,57.8099512 96.7584214,58.4001512 97.1873445,58.9039804 L97.3321472,58.5310159 C98.4741137,58.8503259 98.6178194,59.6132673 99.0719732,59.974454 C99.0072508,60.0071701 98.9622742,60.0425036 98.9710502,60.0830717 C99.0357726,60.0660593 99.096107,60.0451209 99.1575385,60.0254912 C99.2003211,60.0529728 99.2409097,60.0843803 99.2902742,60.10401 C99.2902742,60.0712939 99.2804013,60.0294171 99.2749164,59.992775 C99.5239331,59.9181821 99.7883077,59.8763054 100.255625,60.0699852 C99.0215117,60.2976899 97.7347425,60.3107763 96.4688161,59.9783799 C96.5137926,59.8789227 96.6399465,59.7820828 96.7836522,59.6891688 C95.1392642,60.4285546 92.6677458,60.2374921 91.5652709,61.0959647 L92.0534314,61.2673975 C92.4505418,61.0292237 93.2568294,61.0030508 93.5771505,61.2229035 C92.3419398,61.4492995 94.4536455,62.0028574 93.1482274,62.3614267 C91.3502609,62.7396258 89.7530435,61.8196467 88.7734314,62.7644901 C90.4814448,62.86133 92.7862207,63.3677765 93.4806154,62.9490094 L92.3781405,62.90975 L94.8957324,61.7673008 C94.9911706,62.1939199 97.1160401,61.5003368 97.0743545,62.1886853 C96.2077324,62.3116981 95.4157057,62.3051549 94.7377659,62.3758218 C94.9001204,62.6715761 97.0568027,62.5354768 97.9684013,62.6244648 L96.8209498,62.3745132 C98.8723211,61.8117948 101.491933,61.9976228 103.479679,61.5683864 C101.916468,62.1101664 105.468522,62.0421168 104.213565,62.6113784 C103.703465,62.9777996 102.879625,62.412464 103.115478,62.5721189 C102.959706,63.1832573 104.33204,62.6938232 104.734635,63.1492324 C104.862983,62.905824 105.673659,62.7304653 106.008241,62.523699 L106.71909,63.2578502 C105.025338,63.7917783 103.454448,64.2916816 102.572468,64.5337813 L103.089151,64.1673601 C101.504,65.054623 99.9034916,64.1333352 98.2733645,64.80598 C98.3402809,64.6738066 98.5267692,64.6227693 98.221806,64.5939791 C96.2077324,64.4657317 95.4058328,65.7050207 93.7877726,65.1305245 L93.9896187,64.735313 C93.852495,64.7824243 92.8970167,65.1082775 93.086796,65.5466744 C94.4437726,65.4027232 94.6993712,65.2208212 95.9126421,65.3385994 C95.4157057,65.6984775 94.3351706,65.9981577 93.5387559,66.000775 L93.4520936,66.6943581 C92.429699,67.4272006 91.3886555,66.3528011 90.3706488,67.0830264 L91.5652709,67.5502135 C91.5323612,67.5803124 91.4380201,67.5973248 91.3623278,67.6195718 C91.9020468,67.5502135 92.3682676,67.4572995 92.4955184,67.2937186 C94.2945819,66.9155195 95.2182475,67.9087828 95.5089498,68.2817473 C96.3503411,68.5068347 95.2061806,69.1559238 95.3071037,69.5838515 C96.6607893,69.4385916 96.581806,68.6677983 97.9376856,68.5238471 C98.2942074,68.6154524 98.1713445,68.7554777 98.0111839,68.8313792 L98.9172977,68.4793531 C98.9677592,68.6926626 101.287893,68.8497003 99.9133645,69.340443 C99.7082274,69.3208133 99.3297659,69.340443 99.0357726,69.3103442 C100.92808,69.8102474 104.198207,70.361188 104.09509,71.1372159 C105.128455,71.3099573 104.841043,70.9330669 106.483237,71.1646975 C107.246742,70.6137569 106.424,70.0471126 108.218676,69.6689135 L106.802462,69.3954062 C106.510662,69.5014067 106.269324,69.637506 105.951197,69.7238767 L107.424455,69.659753 C106.49311,69.9162479 106.659853,70.2093849 106.385605,70.7393871 C104.11703,70.7930416 103.495037,69.8324944 102.345391,69.5786169 C103.049659,69.1611584 104.264027,69.2815539 103.809873,68.6115265 C104.944161,69.2082697 105.06812,68.0396476 106.385605,68.5879708 L106.132201,68.7685642 C107.200669,68.2503398 107.347666,68.8889597 108.230742,68.4191553 C108.163826,68.5513287 108.281204,68.6337735 108.395291,68.713601 C110.315023,68.4152294 107.813886,68.3079203 109.739104,67.6640658 C111.447117,67.763523 110.294181,68.7607123 110.764789,69.0852568 C107.898355,69.9842975 110.82293,70.2028416 107.721739,70.9383015 C107.732709,71.8412681 108.950368,71.960355 110.60792,71.8465027 C109.527385,71.4617604 111.295732,70.5247689 109.859773,69.8979268 C112.337873,69.4464435 112.129445,67.6915474 114.900441,68.5173039 L114.832428,68.6494772 L115.971104,67.9977709 L117.539799,68.3602662 C116.566769,69.3077269 115.37105,68.8431571 114.605351,69.3927889 C116.515211,70.3415583 117.169017,68.461032 119.370676,68.5395509 C121.202649,69.6204936 117.129525,69.1546151 117.138301,70.0562731 C117.580388,69.8207166 118.781592,70.2865951 118.64008,70.5509418 C116.578836,70.2093849 117.385124,71.1188948 115.088027,70.6189915 C116.208054,70.312768 114.916896,70.3245459 115.126421,69.9267171 C114.799518,70.2434097 112.648321,70.3808177 111.12899,70.2303232 C110.781244,70.8911902 112.446475,70.7773378 113.406341,71.0783267 C115.224054,70.3546447 117.107585,71.6502056 118.504054,70.8152886 C120.466569,70.7302265 118.652147,71.4539085 118.770622,71.5350447 C120.532388,71.8465027 119.534127,70.9854128 120.095786,70.8309924 C122.75489,70.3310891 123.053271,71.6083289 124.94887,71.6554402 C126.527438,70.7668687 130.369097,71.0744008 133.058916,71.1306726 C132.73311,71.4434393 133.089632,71.6868477 133.251987,71.9839107 C134.854689,70.7485476 134.277672,71.2510682 136.280776,70.4737316 L134.587023,70.0314088 C135.945097,69.8848403 137.037699,69.0198244 138.282783,69.6990124 C136.629619,68.5644152 140.472375,68.8719473 141.473926,68.4845877 C142.860522,68.8955029 144.252602,68.0618946 145.010622,68.7607123 L144.82194,68.8117495 L146.836013,68.939997 L146.592482,70.0248656 C147.976883,70.4410155 149.678314,69.6348887 149.201124,69.3103442 C150.655732,69.5903947 149.797886,69.7160248 150.009605,70.22378 C149.189057,70.5601024 147.425097,71.4957852 146.921579,70.6150656 C147.040054,70.6962017 147.346114,70.7263006 147.416321,70.5941272 C143.632803,70.0981499 146.18111,71.9119351 144.293191,72.1893683 C145.277191,72.2665785 146.012174,72.7913461 147.06309,72.502135 C147.551251,72.479888 149.536803,72.0506517 150.538355,71.6632921 C149.162729,72.1527262 148.455171,71.6685267 147.375732,71.2837844 C148.291719,71.374081 148.44091,70.7629427 149.225258,71.1175861 L148.969659,71.3021054 L149.969017,70.9134372 C150.118207,71.5533657 152.709298,71.1817099 151.192161,71.9354907 C152.550234,71.7915395 151.658381,71.35576 152.894689,71.1306726 L150.454983,70.8911902 L150.496669,70.2028416 C151.387425,69.7343459 151.601338,70.2421011 152.584241,70.1976071 L152.50087,69.4268138 L154.241793,70.0824461 C154.026783,69.5759996 155.364013,69.774914 155.73699,69.6728395 C156.697953,69.9764457 156.07596,71.1646975 157.709378,70.4907441 L157.590903,70.4096079 C158.526635,70.153113 159.079518,70 160.417846,70.2028416 C160.346542,70.3337064 159.977953,70.4357809 159.793659,70.4868181 C161.666221,70.880721 164.669779,69.7160248 165.524334,70.8414616 C165.37295,71.4499826 164.591893,71.0966478 164.552401,71.7863049 C161.666221,70.880721 162.529552,72.9065071 159.131077,72.3673444 C158.974207,70.8231405 156.263545,73.2663851 155.617418,71.7431196 C156.951358,71.9446513 158.722997,71.0076598 158.486047,70.8440788 C157.258515,70.9317582 155.537338,70.9644744 154.680589,70.8048194 C155.434221,71.3086487 155.191786,72.1605781 154.644388,72.6892716 C156.62994,72.2600353 160.240134,73.3069532 163.050622,73.4443611 L162.734689,72.5139129 C165.162328,71.8465027 162.440696,73.3841634 164.335197,73.4325833 L165.172201,72.7494694 L165.291773,72.8319142 L166.681659,71.9969972 C165.699853,72.0375652 166.151813,72.7075927 165.071278,72.324159 C164.110314,72.0218615 165.111866,71.6331932 165.386114,71.1044997 C166.043211,71.3793156 168.380896,71.1882531 166.937258,71.8111692 L169.50202,70.8846469 C169.483371,71.2288212 168.923906,71.3832416 168.662823,71.5651435 L170.514542,71.4015626 L170.446528,71.5324274 C171.937338,71.1241294 174.020522,71.1188948 175.159197,70.4645711 C173.535652,70.0405694 174.485645,69.8390377 175.323746,69.615259 C175.838234,69.7003211 176.345043,69.7984696 176.835398,69.9162479 C176.894635,70.4593365 176.530435,71.1568456 175.407117,71.5324274 C174.886047,70.9945733 173.557592,71.6973169 172.57798,71.737885 C173.840615,72.0715901 174.234435,71.62665 175.221726,71.582156 C174.52404,71.9996145 176.53592,72.1265533 176.515077,72.4733448 C176.382341,72.7390002 175.968776,73.5307319 174.700656,73.1983354 C172.806154,73.1512241 174.5021,72.346406 173.942635,72.5008264 C173.440214,71.6174894 171.301084,72.6565554 170.152535,72.4052951 C170.031866,72.324159 170.407037,72.2220845 170.593525,72.1710473 C169.606234,72.2142326 167.526341,72.2168499 167.374957,72.8266796 L169.845378,72.3751962 C170.384,72.5662588 169.08297,72.9261368 169.855251,73.2794716 C170.41691,73.1263598 171.090462,73.0530756 171.822154,73.1917922 L171.68503,73.4574476 C173.182421,73.9508077 175.524495,73.7649797 177.25006,73.5163367 C177.572575,72.3922087 178.248321,71.6201067 178.905418,70.5601024 C179.324468,70.7276092 179.712803,70.9160545 180.079197,71.1188948 C179.243291,71.4067972 178.902127,71.9616637 179.45501,72.346406 L179.904776,72.1121581 L180.843799,72.7612472 C181.200321,71.5062544 183.968027,72.2194672 185.486261,71.6632921 C184.443023,72.2168499 183.545686,73.3750028 182.201873,72.6120614 L182.346676,73.2546073 C181.180575,73.3462126 180.236067,72.6997408 179.588843,73.3305088 L180.946916,73.185249 L180.922783,73.5307319 C181.88594,73.4875465 183.111278,72.9457665 183.999839,73.3305088 C184.780896,72.9038898 185.513686,72.2247018 187.601258,72.3791222 L187.532147,72.5139129 C188.946167,71.3322043 191.474729,73.2441381 192.544294,72.7246051 C193.1619,71.5363533 190.248294,72.2233932 189.541833,71.7365763 C190.422716,71.2667719 191.363933,71.915861 190.608107,71.2170433 C192.664963,70.6530163 191.836736,72.2404056 193.534876,71.4316615 L192.572816,71.1306726 C193.335224,70.5810407 194.604441,70.9134372 195.373431,70.3651139 C195.417311,70.0261743 195.197913,69.9738284 194.831518,70.0039273 C195.201204,69.8324944 195.627933,69.6584444 196.153391,69.5288883 C196.647037,69.6047898 197.185659,69.6636789 197.793391,69.6990124 C197.905284,69.7016297 197.986462,69.6728395 198.058863,69.6361973 C198.096161,69.6610616 198.124682,69.6924692 198.158689,69.7199508 L197.793391,69.6990124 C197.934903,69.7199508 198.058863,69.73042 198.176241,69.7343459 C198.961686,70.3467929 199.333565,71.2890189 199.006662,72.231245 L198.642462,72.0715901 C197.927224,72.1749732 198.582127,72.3647271 198.860763,72.5466291 C198.83992,72.5871971 198.820174,72.6277652 198.79604,72.6670246 C197.889926,72.7586299 197.471973,72.3791222 196.728214,72.3699617 C196.961873,72.5335426 197.499398,72.7246051 197.364468,72.9902605 C196.044789,72.4432459 194.743759,72.799198 193.518421,71.7797617 C194.224883,72.2652699 192.711037,73.0190507 192.147184,73.1734711 L194.665873,74.1824382 C197.865793,73.8696715 199.859023,74.3434019 203.314542,73.8500418 L203.109405,74.2452533 C208.550475,75.4740732 207.626809,72.3293936 212.280241,72.2992947 C212.408589,73.2833975 214.432535,72.1631954 214.257017,73.1171993 C212.851773,73.0504583 213.13699,73.4234228 213.537391,73.8801407 C214.353552,73.5425097 214.884495,72.8319142 216.456482,73.1917922 C215.877271,73.6916955 217.260575,74.1065367 215.718207,74.2989079 C217.849659,74.5096001 219.01905,74.4166861 220.108361,73.5542875 C223.585819,72.7115186 221.149405,74.6234524 224.603826,74.1300923 L224.09592,74.4991309 L226.24602,74.3617229 L225.539559,73.8749061 L228.082381,73.292558 C229.645592,72.750778 227.446127,72.6735678 227.647973,72.2770477 L227.122515,72.9902605 C226.094635,72.8201363 224.643318,73.4404352 224.429405,72.9352973 C226.107799,72.8266796 225.706301,72.2665785 226.374368,71.982602 L224.77386,72.2731218 L224.252789,71.7365763 C222.663251,71.7195639 221.440107,71.600477 220.491211,72.2024548 C221.149405,72.4733448 221.56297,71.6816132 222.150957,72.0859852 C221.3699,72.9811 219.4019,73.0648534 217.486555,73.3645336 C217.437191,73.1512241 216.829458,73.0910263 217.087251,72.9091244 C217.125645,72.8266796 217.461324,72.8345315 217.646716,72.8711736 C217.50301,72.4733448 218.571478,72.2168499 216.771318,71.9760588 C217.417445,71.3452908 218.763452,70.2970643 218.716281,70.0824461 C219.765003,69.908396 221.239358,69.8455809 222.080749,70.068051 L222.013833,70.2002244 C222.747719,70.2722 224.131023,69.8756798 224.726689,70.0523472 C224.79909,70.134792 224.87588,70.2120022 224.958154,70.2722 L224.936214,70.1832119 C224.962542,70.2159281 224.999839,70.2394838 225.010809,70.2839778 C225.56808,70.1295574 227.109351,69.9332603 225.539559,69.5720736 L226.624482,69.4163446 C227.406635,70.0340261 226.964548,71.0966478 226.771478,71.7444282 L227.845431,70.5823494 L227.969391,71.351834 C227.852013,71.4015626 227.722569,71.4525999 227.573378,71.5075631 C227.604094,71.4984025 227.747799,71.4761555 227.983652,71.440822 L228.054957,71.8831448 C228.184401,71.6331932 228.291906,71.4800815 228.387344,71.3819329 C228.529953,71.3609946 228.692308,71.3374389 228.868923,71.3138832 C228.9501,71.3544513 229.034569,71.4067972 229.133298,71.4525999 C228.741672,71.9773675 229.455813,72.1959116 230.433231,72.2901342 C230.438716,72.2927515 230.442007,72.2966774 230.447492,72.2992947 L230.455171,72.2927515 C230.675666,72.3136898 230.903839,72.3307022 231.138595,72.3411714 L231.47208,71.6986256 C232.690836,72.0611209 233.419237,72.6369257 235.040589,72.3568752 L238.836174,69.9541987 C239.202569,69.9031614 239.576642,69.8521242 239.950716,69.8037042 C239.995692,69.837729 240.058221,69.859976 240.119652,69.8848403 L240.006662,70.4462501 L240.345632,69.9541987 C241.00602,70.1033844 241.99002,70.0392607 241.459077,70.6438558 C241.628013,70.9409188 241.068548,71.0927218 240.337953,70.9513879 C240.22606,70.8715604 240.407064,70.8218318 240.29188,70.7393871 C240.084548,71.1372159 239.996789,71.6135635 240.885351,72.0454171 C239.977043,71.9577377 239.859666,71.8779103 239.229993,72.1631954 L240.143786,72.2521834 C238.787906,72.3961346 236.715692,73.3056445 236.744214,73.8631283 C237.159973,73.070088 238.028789,73.8500418 238.759385,73.9913757 C238.198823,74.1444875 237.010783,74.5828843 237.921284,74.673181 C238.245993,74.3551797 240.724094,73.9063136 238.965619,73.5961642 C239.710475,73.3893979 240.71093,73.0007297 241.555612,73.2245084 C240.561739,73.611868 241.215545,73.882758 240.938007,74.4127602 C241.821084,73.9455731 241.791465,73.3880893 241.935171,73.1224339 C244.461538,73.7859181 245.486127,75.2058005 248.331719,74.6522426 C248.704696,74.5501681 246.606154,74.899577 246.876013,74.3721921 C248.955906,73.4626822 249.581191,75.3288133 251.383545,74.9479969 L250.876736,74.0672773 C251.436201,73.9141655 252.797565,73.7702143 253.467826,73.6956214 C253.638957,73.9913757 255.56198,74.5959708 254.13699,74.8720954 C257.229405,75.3850852 256.871786,72.9902605 260.416161,73.2663851 C258.776161,73.0373718 258.587478,73.0884091 257.299612,73.1001869 C258.67414,72.6107528 257.510234,72.706284 257.661619,72.0951457 C258.486555,72.66179 261.150047,72.1605781 259.335625,72.8842601 C260.433712,72.9222108 262.634274,72.9981124 263.143278,72.6329998 L262.181217,72.3293936 C263.213485,72.3398628 264.229298,72.1147754 264.997191,71.7836876 C266.002033,71.7980828 267.010167,71.7679839 267.860334,71.8386508 C267.875692,71.8360335 267.887759,71.8334162 267.90202,71.830799 C268.395666,71.9551204 268.745605,72.1762819 269.038502,72.3765049 C269.113097,73.1499155 267.051853,72.8070499 265.578595,72.8685563 C266.516522,73.20357 265.974609,73.4875465 265.291184,73.7911527 C265.168321,73.8147083 265.086047,73.8592023 265.027906,73.9102396 C264.948923,73.9468817 264.873231,73.9822152 264.796441,74.020166 L264.973057,74.0188573 C264.959893,74.105228 264.999385,74.2099198 265.126635,74.353871 C266.362943,74.1287837 267.308548,74.7752555 268.104963,74.784416 C267.318421,73.5268059 270.814528,74.4938963 271.81608,74.1065367 L272.971211,73.9822152 L273.403425,73.9795979 C273.490087,74.1183145 273.367224,74.291056 272.707933,74.539699 C273.257525,74.2923646 275.092789,74.3787353 274.922756,73.975672 L279.10887,73.9573509 C279.239411,74.0083881 279.369953,74.0725119 279.466488,74.1628085 C279.611291,74.082981 279.635425,74.0188573 279.616776,73.9547336 L297.855331,73.8735975 C296.954702,73.7741403 296.176936,73.4875465 295.248883,73.3488299 C296.64206,72.5139129 293.727358,73.1983354 294.136535,72.4092211 C294.761819,72.1213187 295.677806,72.2116153 296.224107,72.4039865 C296.42705,72.004849 295.649284,71.6515143 295.739237,71.1751666 C293.438849,70.6739547 293.086716,72.5819625 290.838983,72.2914428 C290.927839,71.8137865 291.622234,71.396328 290.151171,71.4604518 L290.525244,71.3583773 C288.167813,71.8923054 288.687786,70.2774345 287.204656,71.5873905 L287.24305,70.8977334 C286.174582,71.4172664 284.094689,71.4211923 282.922007,71.5167236 L282.992214,71.3832416 C279.703438,72.1723559 281.14598,71.5507484 277.452415,71.8818362 L279.152749,71.0770181 C277.879144,70.7446217 277.591732,71.6187981 276.676843,71.5298101 C276.731692,71.418575 276.602247,71.0508451 277.055304,70.858474 L272.91307,71.9930712 C271.844602,72.5139129 273.131371,72.5008264 273.297017,72.7939634 C272.901003,73.2415208 270.961525,72.9824086 270.859505,72.5570982 C271.120589,72.372579 272.172602,72.1959116 271.511117,71.9250216 L269.977525,73.0242853 C267.936027,72.3398628 271.528669,71.5795387 272.536803,71.192179 C272.14408,71.1646975 271.813886,71.1751666 271.505632,71.2000309 C274.377552,70.6778806 276.90392,70.1989157 280.325431,69.7722967 C282.595104,71.8164038 285.751144,70.0785201 288.501298,69.9816802 C288.546274,70.0314088 288.619773,70.0837547 288.757993,70.1439525 C288.789806,70.0811374 288.834783,70.0314088 288.875371,69.9777543 C289.46994,69.9921494 290.042569,70.090298 290.5779,70.3428669 L291.421485,69.3195047 L291.428067,69.3195047 C292.857445,70.4527933 294.810087,69.8324944 296.836227,69.886149 C296.838421,69.9136306 296.850488,69.9345689 296.849391,69.9646678 C297.282702,70.023557 297.732468,70.045804 298.184428,70.0523472 C298.624321,70.1544217 299.063117,70.3062248 299.496428,70.5457073 C300.201793,70.0955326 300.572575,69.9541987 300.737124,69.9175565 C300.70202,69.9031614 300.661431,69.8769885 300.620843,69.837729 C301.205538,69.73042 301.759518,69.5877774 302.27291,69.4032581 C302.565806,69.522345 302.755585,69.7435064 302.712803,70.2080762 L302.504375,70.3415583 C302.383706,71.644971 305.001124,69.7330372 305.919304,70.8610913 L305.415786,69.4660732 L306.974609,69.7016297 L306.557753,69.9699024 C306.905498,69.8102474 307.237886,69.6833086 307.56808,69.5616044 C309.022689,69.7657534 310.378569,70.0719769 310.761418,69.6636789 C311.301137,69.3770852 311.962622,69.1153557 312.663599,68.8601695 C315.906301,69.1048865 318.638903,70.2970643 322.744936,68.4701926 C321.902448,69.9921494 323.998796,67.670609 324.08107,69.3338998 C325.394167,71.0482278 326.548201,69.6545184 327.645191,68.7855766 C328.074114,68.7672555 328.511813,68.7567863 328.94293,68.7515517 C329.02301,68.7816506 329.097605,68.8143668 329.159037,68.8549349 C329.143679,68.8182928 329.149164,68.7829593 329.173298,68.7489344 C329.387211,68.7476258 329.597833,68.7489344 329.801873,68.7502431 C329.805164,68.6717242 329.726181,68.6154524 329.617579,68.5683411 L329.591251,68.5212298 C329.591251,68.5212298 329.563826,68.5303903 329.540789,68.5382422 C329.525431,68.5330076 329.508977,68.527773 329.492522,68.5225385 C329.285191,68.3406365 329.078957,68.2555744 328.871625,68.2398706 C328.872722,68.1927593 328.911117,68.1391048 329.02301,68.0684378 L330.694823,68.212389 C330.616936,68.2869819 330.578542,68.372044 330.596094,68.4701926 C330.256027,69.0158985 330.399732,68.9072808 330.664107,68.6272302 C331.030502,68.5631065 331.429806,68.4924396 331.841177,68.4191553 C337.736401,69.7107902 345.223358,68.260809 351.898542,68.9596267 L351.594676,68.4178467 C353.353151,68.5212298 355.541645,67.8642888 356.876682,68.7293047 C358.212816,69.5917033 359.795773,67.355225 360.314649,67.2688543 C361.776936,66.3370974 363.108682,68.190142 362.480107,68.0946108 C363.405967,67.941499 364.30111,67.2151997 365.325699,66.8108277 C365.553873,66.8749514 365.78095,66.9390752 366.009124,67.0241372 C366.554328,67.8328813 370.504589,67.7582884 373.611264,67.4415957 L373.582742,67.6405101 C373.605779,67.5646086 373.613458,67.5044108 373.627719,67.4402871 C374.164147,67.3840153 374.666569,67.3212002 375.130595,67.2544592 C377.396977,67.5161886 379.619478,66.0583555 382.095385,67.1183598 C382.095385,67.1183598 382.037244,67.266237 381.936321,67.4010277 L384.598716,64.7366217 C384.599813,64.7366217 384.60091,64.7366217 384.60091,64.735313 L384.431973,65.0781786 C384.878448,65.4445999 385.130756,61.889005 390.072696,66.2324056 L390.072696,66.3907519 C390.243826,66.3632703 390.242729,66.0478863 390.58499,66.4679621 L389.730435,65.4982544 C390.242729,65.1017343 390.690301,64.3440275 391.371532,64.2367184 C391.517431,64.4133858 391.565699,64.7379303 391.581057,64.9918079 L393.253967,64.7261525 L393.766261,65.7495147 C394.277458,65.1946482 394.044896,63.0353801 395.412843,64.238027 C394.897258,62.7409345 396.09188,63.3402949 395.922943,62.5773535 C395.992054,62.7631815 396.148923,63.0393061 396.275077,63.2958009 C397.087946,63.1217508 398.620441,62.7029837 399,61.933499 C399,61.933499 398.099371,61.0410015 397.128535,59.9666021 C397.72091,59.7847001 398.212361,59.5713906 398.451505,59.3162043 L398.451505,59.3162043 Z" id="Fill-29" transform="translate(235.000000, 50.500000) rotate(-180.000000) translate(-235.000000, -50.500000) "></path>
                    </g>
                </g>
            </g>
        </g>
    </g>
</svg>