<?xml version="1.0" standalone="no"?>
<!DOCTYPE svg PUBLIC "-//W3C//DTD SVG 20010904//EN"
 "http://www.w3.org/TR/2001/REC-SVG-20010904/DTD/svg10.dtd">
<svg version="1.0" xmlns="http://www.w3.org/2000/svg"
 width="797.000000pt" height="797.000000pt" viewBox="0 0 797.000000 797.000000"
 preserveAspectRatio="xMidYMid meet">
<metadata>
Created by potrace 1.14, written by Peter Selinger 2001-2017
</metadata>
<g transform="translate(0.000000,797.000000) scale(0.100000,-0.100000)"
fill="#000000" stroke="none">
<path d="M3267 6654 c-4 -4 -7 -17 -7 -30 0 -12 -7 -24 -15 -28 -8 -3 -15 -16
-15 -30 0 -13 -7 -26 -15 -30 -8 -3 -15 -16 -15 -30 0 -13 -7 -26 -15 -30 -8
-3 -15 -16 -15 -30 0 -13 -7 -26 -15 -30 -8 -3 -15 -16 -15 -30 0 -13 -7 -26
-15 -30 -8 -3 -15 -16 -15 -30 0 -13 -7 -26 -15 -30 -8 -3 -15 -16 -15 -30 0
-13 -7 -26 -15 -30 -8 -3 -15 -16 -15 -30 0 -13 -7 -26 -15 -30 -8 -3 -15 -16
-15 -30 0 -13 -7 -26 -15 -30 -8 -3 -15 -16 -15 -30 0 -13 -7 -26 -15 -30 -8
-3 -15 -16 -15 -30 0 -13 -7 -26 -15 -30 -8 -3 -15 -16 -15 -30 0 -13 -7 -26
-15 -30 -8 -3 -15 -16 -15 -30 0 -13 -7 -26 -15 -30 -8 -3 -15 -16 -15 -30 0
-13 -7 -26 -15 -30 -8 -3 -15 -16 -15 -30 0 -13 -7 -26 -15 -30 -8 -3 -15 -16
-15 -30 0 -13 -7 -26 -15 -30 -8 -3 -15 -16 -15 -30 0 -13 -7 -26 -15 -30 -8
-3 -15 -16 -15 -30 0 -13 -7 -26 -15 -30 -8 -3 -15 -16 -15 -30 0 -13 -7 -26
-15 -30 -8 -3 -15 -16 -15 -30 0 -13 -7 -26 -15 -30 -8 -3 -15 -16 -15 -30 0
-13 -7 -26 -15 -30 -8 -3 -15 -16 -15 -30 0 -13 -7 -26 -15 -30 -10 -3 -15
-19 -15 -45 0 -25 -5 -41 -15 -45 -8 -3 -15 -16 -15 -30 0 -13 -7 -26 -15 -30
-8 -3 -15 -16 -15 -30 0 -13 -7 -26 -15 -30 -8 -3 -15 -16 -15 -30 0 -13 -7
-26 -15 -30 -8 -3 -15 -16 -15 -30 0 -13 -7 -26 -15 -30 -8 -3 -15 -16 -15
-30 0 -13 -7 -26 -15 -30 -8 -3 -15 -16 -15 -30 0 -13 -7 -26 -15 -30 -8 -3
-15 -16 -15 -30 0 -13 -7 -26 -15 -30 -8 -3 -15 -16 -15 -30 0 -13 -7 -26 -15
-30 -8 -3 -15 -16 -15 -30 0 -13 -7 -26 -15 -30 -8 -3 -15 -16 -15 -30 0 -13
-7 -26 -15 -30 -8 -3 -15 -16 -15 -30 0 -13 -7 -26 -15 -30 -8 -3 -15 -16 -15
-30 0 -13 -7 -26 -15 -30 -8 -3 -15 -16 -15 -30 0 -13 -7 -26 -15 -30 -8 -3
-15 -16 -15 -30 0 -13 -7 -26 -15 -30 -8 -3 -15 -16 -15 -30 0 -13 -7 -26 -15
-30 -8 -3 -15 -16 -15 -30 0 -13 -7 -26 -15 -30 -8 -3 -15 -16 -15 -30 0 -13
-7 -26 -15 -30 -8 -3 -15 -16 -15 -30 0 -13 -7 -26 -15 -30 -8 -3 -15 -16 -15
-30 0 -13 -7 -26 -15 -30 -8 -3 -15 -16 -15 -30 0 -13 -7 -26 -15 -30 -8 -3
-15 -16 -15 -30 0 -13 -7 -26 -15 -30 -8 -3 -15 -16 -15 -30 0 -13 -7 -26 -15
-30 -8 -3 -15 -16 -15 -30 0 -13 -7 -26 -15 -30 -8 -3 -15 -16 -15 -30 0 -13
-7 -26 -15 -30 -8 -3 -15 -16 -15 -30 0 -13 -7 -26 -15 -30 -8 -3 -15 -16 -15
-30 0 -13 -7 -26 -15 -30 -8 -3 -15 -16 -15 -30 0 -13 -7 -26 -15 -30 -8 -3
-15 -16 -15 -30 0 -13 -7 -26 -15 -30 -8 -3 -15 -16 -15 -30 0 -13 -7 -26 -15
-30 -8 -3 -15 -16 -15 -30 0 -13 -7 -26 -15 -30 -8 -3 -15 -16 -15 -30 0 -13
-7 -26 -15 -30 -8 -3 -15 -16 -15 -30 0 -13 -7 -26 -15 -30 -8 -3 -15 -16 -15
-30 0 -13 -7 -26 -15 -30 -8 -3 -15 -16 -15 -30 0 -13 -7 -26 -15 -30 -8 -3
-15 -16 -15 -30 0 -13 -7 -26 -15 -30 -8 -3 -15 -16 -15 -30 0 -13 -7 -26 -15
-30 -8 -3 -15 -16 -15 -30 0 -13 -7 -26 -15 -30 -8 -3 -15 -16 -15 -30 0 -13
-7 -26 -15 -30 -8 -3 -15 -16 -15 -30 0 -13 -7 -26 -15 -30 -8 -3 -15 -16 -15
-30 0 -13 -7 -26 -15 -30 -8 -3 -15 -16 -15 -30 0 -13 -7 -26 -15 -30 -8 -3
-15 -16 -15 -30 0 -13 -7 -26 -15 -30 -8 -3 -15 -16 -15 -30 0 -13 -7 -26 -15
-30 -8 -3 -15 -16 -15 -30 0 -13 -7 -26 -15 -30 -8 -3 -15 -16 -15 -30 0 -13
-7 -26 -15 -30 -8 -3 -15 -16 -15 -30 0 -13 -7 -26 -15 -30 -8 -3 -15 -16 -15
-30 0 -13 -7 -26 -15 -30 -8 -3 -15 -16 -15 -30 0 -13 -7 -26 -15 -30 -8 -3
-15 -16 -15 -30 0 -13 -7 -26 -15 -30 -8 -3 -15 -15 -15 -26 0 -12 -7 -28 -15
-36 -8 -9 -15 -30 -15 -49 0 -20 -6 -35 -15 -39 -8 -3 -15 -16 -15 -30 0 -13
-7 -26 -15 -30 -8 -3 -15 -16 -15 -30 0 -13 -7 -26 -15 -30 -8 -3 -15 -16 -15
-30 0 -13 -7 -26 -15 -30 -8 -3 -15 -16 -15 -30 0 -13 -7 -26 -15 -30 -8 -3
-15 -16 -15 -30 0 -13 -7 -26 -15 -30 -8 -3 -15 -16 -15 -30 0 -13 -7 -26 -15
-30 -8 -3 -15 -16 -15 -30 0 -13 -7 -26 -15 -30 -8 -3 -15 -16 -15 -30 0 -13
-7 -26 -15 -30 -8 -3 -15 -16 -15 -30 0 -13 -7 -26 -15 -30 -8 -3 -15 -16 -15
-30 0 -13 -7 -26 -15 -30 -8 -3 -15 -16 -15 -30 0 -13 -7 -26 -15 -30 -8 -3
-15 -16 -15 -30 0 -13 -7 -26 -15 -30 -8 -3 -15 -16 -15 -30 0 -13 -7 -26 -15
-30 -8 -3 -15 -16 -15 -30 0 -13 -8 -27 -18 -31 -36 -16 35 -22 281 -24 l247
-2 0 29 c0 17 6 32 15 36 8 3 15 16 15 30 0 13 7 26 15 30 8 3 15 16 15 30 0
13 7 26 15 30 8 3 15 16 15 30 0 13 7 26 15 30 8 3 15 16 15 30 0 13 7 26 15
30 8 3 15 16 15 30 0 13 7 26 15 30 8 3 15 16 15 30 0 13 7 26 15 30 8 3 15
16 15 30 0 13 7 26 15 30 8 3 15 16 15 30 0 13 7 26 15 30 8 3 15 16 15 30 0
13 7 26 15 30 8 3 15 16 15 30 0 13 7 26 15 30 8 3 15 16 15 30 0 13 7 26 15
30 8 3 15 16 15 30 0 13 7 26 15 30 8 3 15 16 15 30 0 13 7 26 15 30 8 3 15
16 15 30 0 13 7 26 15 30 8 3 15 16 15 30 0 13 7 26 15 30 8 3 15 16 15 30 0
13 7 26 15 30 8 3 15 16 15 30 0 13 7 26 15 30 8 3 15 16 15 30 0 13 7 26 15
30 8 3 15 16 15 30 0 13 7 26 15 30 8 3 15 16 15 30 0 13 7 26 15 30 8 3 15
16 15 30 0 13 7 26 15 30 8 3 15 16 15 30 0 13 7 26 15 30 8 3 15 16 15 30 0
13 7 26 15 30 8 3 15 16 15 30 0 13 7 26 15 30 8 3 15 16 15 30 0 13 7 26 15
30 8 3 15 16 15 30 0 13 7 26 15 30 8 3 15 16 15 30 0 13 7 26 15 30 10 3 15
19 15 45 0 25 5 41 15 45 8 3 15 16 15 30 0 13 7 26 15 30 8 3 15 16 15 30 0
13 7 26 15 30 8 3 15 16 15 30 0 13 7 26 15 30 8 3 15 16 15 30 0 13 7 26 15
30 8 3 15 16 15 30 0 13 7 26 15 30 8 3 15 16 15 30 0 13 7 26 15 30 8 3 15
16 15 30 0 13 7 26 15 30 8 3 15 16 15 30 0 13 7 26 15 30 8 3 15 16 15 30 0
13 7 26 15 30 8 3 15 16 15 30 0 13 7 26 15 30 8 3 15 16 15 30 0 13 7 26 15
30 8 3 15 16 15 30 0 13 7 26 15 30 8 3 15 16 15 30 0 13 7 26 15 30 8 3 15
16 15 30 0 13 7 26 15 30 8 3 15 16 15 30 0 13 7 26 15 30 8 3 15 16 15 30 0
13 7 26 15 30 8 3 15 16 15 30 0 13 7 26 15 30 8 3 15 16 15 30 0 13 7 26 15
30 8 3 15 16 15 28 1 13 14 34 30 48 17 13 30 34 30 46 0 12 7 24 15 28 8 3
15 16 15 30 0 13 7 26 15 30 8 3 15 16 15 30 0 13 7 26 15 30 8 3 15 16 15 30
0 13 7 26 15 30 8 3 15 16 15 30 0 13 7 26 15 30 8 3 15 16 15 30 0 13 7 26
15 30 8 3 15 16 15 30 0 13 7 26 15 30 8 3 15 16 15 30 0 13 7 26 15 30 8 3
15 16 15 30 0 13 7 26 15 30 8 3 15 16 15 30 0 13 7 26 15 30 8 3 15 16 15 30
0 13 7 26 15 30 8 3 15 16 15 30 0 13 7 26 15 30 8 3 15 16 15 30 0 13 7 26
15 30 8 3 15 16 15 30 0 13 7 26 15 30 8 3 15 16 15 30 0 13 7 26 15 30 8 3
15 16 15 30 0 13 7 26 15 30 8 3 15 16 15 30 0 13 7 26 15 30 8 3 15 16 15 30
0 13 7 26 15 30 8 3 15 16 15 30 0 13 7 26 15 30 8 3 15 16 15 30 0 13 7 26
15 30 8 3 15 16 15 30 0 13 7 26 15 30 8 3 15 15 15 26 0 21 33 60 50 60 6 0
10 -11 10 -25 0 -14 7 -28 15 -31 8 -4 15 -17 15 -30 0 -14 7 -27 15 -30 8 -4
15 -17 15 -30 0 -14 7 -27 15 -30 8 -4 15 -17 15 -30 0 -14 7 -27 15 -30 8 -4
15 -17 15 -30 0 -14 7 -27 15 -30 8 -4 15 -17 15 -30 0 -14 7 -27 15 -30 8 -4
15 -17 15 -30 0 -14 7 -27 15 -30 8 -4 15 -17 15 -30 0 -14 7 -27 15 -30 8 -4
15 -17 15 -30 0 -14 7 -27 15 -30 8 -4 15 -17 15 -30 0 -14 7 -27 15 -30 8 -4
15 -17 15 -30 0 -14 7 -27 15 -30 8 -4 15 -17 15 -30 0 -14 7 -27 15 -30 8 -4
15 -17 15 -30 0 -14 7 -27 15 -30 8 -4 15 -17 15 -30 0 -14 7 -27 15 -30 8 -4
15 -17 15 -30 0 -14 7 -27 15 -30 8 -4 15 -17 15 -30 0 -14 7 -27 15 -30 8 -4
15 -17 15 -30 0 -14 7 -27 15 -30 8 -4 15 -17 15 -30 0 -14 7 -27 15 -30 8 -4
15 -17 15 -30 0 -14 7 -27 15 -30 8 -4 15 -17 15 -30 0 -14 7 -27 15 -30 8 -4
15 -17 15 -30 0 -14 7 -27 15 -30 8 -4 15 -17 15 -30 0 -14 7 -27 15 -30 8 -4
15 -17 15 -30 0 -14 7 -27 15 -30 8 -4 15 -17 15 -30 0 -14 7 -27 15 -30 8 -4
15 -17 15 -30 0 -14 7 -27 15 -30 8 -4 15 -17 15 -30 0 -14 7 -27 15 -30 8 -4
15 -17 15 -30 0 -14 7 -27 15 -30 8 -4 15 -17 15 -30 0 -14 7 -27 15 -30 8 -4
15 -17 15 -30 0 -14 7 -27 15 -30 8 -4 15 -17 15 -30 0 -14 7 -27 15 -30 8 -4
15 -17 15 -30 0 -14 7 -27 15 -30 8 -4 15 -17 15 -30 0 -14 7 -27 15 -30 8 -4
15 -17 15 -30 0 -14 7 -27 15 -30 8 -4 15 -17 15 -30 0 -14 7 -27 15 -30 8 -4
15 -17 15 -30 0 -14 7 -27 15 -30 8 -4 15 -17 15 -30 0 -14 7 -27 15 -30 8 -4
15 -17 15 -30 0 -14 7 -27 15 -30 8 -4 15 -17 15 -30 0 -14 7 -27 15 -30 8 -4
15 -17 15 -30 0 -14 7 -27 15 -30 8 -4 15 -17 15 -30 0 -14 7 -27 15 -30 8 -4
15 -16 15 -28 0 -12 10 -30 23 -41 20 -19 40 -20 285 -23 l262 -4 0 26 c0 15
-7 29 -15 32 -8 4 -15 17 -15 30 0 14 -7 27 -15 30 -8 4 -15 17 -15 30 0 14
-7 27 -15 30 -8 4 -15 17 -15 30 0 14 -7 27 -15 30 -8 4 -15 17 -15 30 0 14
-7 27 -15 30 -8 4 -15 17 -15 30 0 14 -7 27 -15 30 -8 4 -15 17 -15 30 0 14
-7 27 -15 30 -8 4 -15 17 -15 30 0 14 -7 27 -15 30 -8 4 -15 17 -15 30 0 14
-7 27 -15 30 -8 4 -15 17 -15 30 0 14 -7 27 -15 30 -8 4 -15 17 -15 30 0 14
-7 27 -15 30 -8 4 -15 17 -15 30 0 14 -7 27 -15 30 -8 4 -15 17 -15 30 0 14
-7 27 -15 30 -8 4 -15 17 -15 30 0 14 -7 27 -15 30 -8 4 -15 17 -15 30 0 14
-7 27 -15 30 -8 4 -15 17 -15 30 0 14 -7 27 -15 30 -8 4 -15 17 -15 30 0 14
-7 27 -15 30 -8 4 -15 17 -15 30 0 14 -7 27 -15 30 -8 4 -15 17 -15 30 0 14
-7 27 -15 30 -8 4 -15 17 -15 30 0 14 -7 27 -15 30 -8 4 -15 17 -15 30 0 14
-7 27 -15 30 -8 4 -15 17 -15 30 0 14 -7 27 -15 30 -8 4 -15 17 -15 30 0 14
-7 27 -15 30 -8 4 -15 17 -15 30 0 14 -7 27 -15 30 -8 4 -15 17 -15 30 0 14
-7 27 -15 30 -8 4 -15 17 -15 30 0 14 -7 27 -15 30 -8 4 -15 17 -15 30 0 14
-7 27 -15 30 -8 4 -15 17 -15 30 0 14 -7 27 -15 30 -8 4 -15 17 -15 30 0 14
-7 27 -15 30 -8 4 -15 17 -15 30 0 14 -7 27 -15 30 -8 4 -15 17 -15 30 0 14
-7 27 -15 30 -8 4 -15 17 -15 30 0 14 -7 27 -15 30 -8 4 -15 17 -15 30 0 14
-7 27 -15 30 -8 4 -15 17 -15 30 0 14 -7 27 -15 30 -8 4 -15 17 -15 30 0 14
-7 27 -15 30 -8 4 -15 17 -15 30 0 14 -7 27 -15 30 -8 4 -15 17 -15 30 0 14
-7 27 -15 30 -8 4 -15 17 -15 30 0 14 -7 27 -15 30 -8 4 -15 17 -15 30 0 14
-7 27 -15 30 -8 4 -15 16 -15 28 0 12 -13 33 -30 46 -16 14 -29 35 -30 48 0
12 -7 25 -15 28 -8 4 -15 17 -15 30 0 14 -7 27 -15 30 -8 4 -15 17 -15 30 0
14 -7 27 -15 30 -8 4 -15 17 -15 30 0 14 -7 27 -15 30 -8 4 -15 17 -15 30 0
14 -7 27 -15 30 -8 4 -15 17 -15 30 0 14 -7 27 -15 30 -8 4 -15 17 -15 30 0
14 -7 27 -15 30 -8 4 -15 17 -15 30 0 14 -7 27 -15 30 -8 4 -15 17 -15 30 0
14 -7 27 -15 30 -8 4 -15 17 -15 30 0 14 -7 27 -15 30 -8 4 -15 17 -15 30 0
14 -7 27 -15 30 -8 4 -15 17 -15 30 0 14 -7 27 -15 30 -8 4 -15 17 -15 30 0
14 -7 27 -15 30 -8 4 -15 17 -15 30 0 14 -7 27 -15 30 -8 4 -15 17 -15 30 0
14 -7 27 -15 30 -8 4 -15 17 -15 30 0 14 -7 27 -15 30 -8 4 -15 17 -15 30 0
14 -7 27 -15 30 -8 4 -15 17 -15 30 0 12 -6 27 -14 31 -8 4 -16 19 -18 33 -3
25 -35 39 -51 24z"/>
<path d="M3800 6620 c0 -27 5 -43 15 -46 8 -4 15 -17 15 -30 0 -14 7 -27 15
-30 8 -4 15 -17 15 -30 0 -14 7 -27 15 -30 8 -4 15 -17 15 -30 0 -14 7 -27 15
-30 8 -4 15 -17 15 -30 0 -14 7 -27 15 -30 8 -4 15 -17 15 -30 0 -14 7 -27 15
-30 8 -4 15 -16 15 -28 0 -12 10 -30 23 -41 21 -20 43 -20 856 -23 698 -3 840
-6 863 -18 15 -8 54 -14 86 -14 44 0 61 -4 66 -15 4 -11 20 -15 56 -15 32 0
57 -6 66 -15 9 -8 28 -15 43 -15 16 0 34 -7 41 -15 7 -8 23 -15 35 -15 13 0
25 -7 29 -15 3 -10 19 -15 45 -15 25 0 41 -5 45 -15 3 -8 16 -15 28 -15 13 -1
34 -14 48 -30 13 -17 34 -30 46 -30 12 0 24 -7 28 -15 3 -8 15 -15 26 -15 11
0 40 -20 63 -45 24 -25 51 -45 60 -45 20 0 327 -307 327 -327 0 -9 20 -36 45
-60 25 -23 45 -51 45 -61 0 -10 13 -29 30 -42 16 -14 29 -35 30 -48 0 -12 7
-25 15 -28 8 -4 15 -17 15 -30 0 -14 7 -27 15 -30 8 -4 15 -17 15 -30 0 -14 7
-27 15 -30 10 -4 15 -20 15 -45 0 -26 5 -42 15 -45 10 -4 15 -20 15 -45 0 -26
5 -42 15 -45 9 -4 15 -19 15 -39 0 -19 7 -40 15 -49 9 -9 15 -33 15 -64 0 -32
5 -54 15 -62 22 -18 22 -562 0 -600 -8 -14 -14 -52 -15 -86 0 -46 -4 -63 -15
-68 -10 -3 -15 -19 -15 -45 0 -25 -5 -41 -15 -45 -10 -3 -15 -19 -15 -45 0
-25 -5 -41 -15 -45 -8 -3 -15 -16 -15 -30 0 -13 -7 -26 -15 -30 -8 -3 -15 -16
-15 -30 0 -13 -7 -26 -15 -30 -8 -3 -15 -16 -15 -30 0 -13 -7 -26 -15 -30 -8
-3 -15 -16 -15 -30 0 -13 -7 -26 -15 -30 -8 -3 -15 -16 -15 -28 -1 -13 -14
-34 -30 -48 -17 -13 -30 -33 -30 -45 -1 -11 -14 -31 -30 -45 -17 -13 -30 -32
-30 -41 0 -23 -306 -329 -329 -329 -9 0 -28 -13 -41 -30 -14 -16 -34 -29 -45
-30 -12 0 -32 -13 -45 -30 -14 -16 -35 -29 -48 -30 -12 0 -25 -7 -28 -15 -4
-8 -17 -15 -30 -15 -14 0 -27 -7 -30 -15 -4 -8 -17 -15 -30 -15 -14 0 -27 -7
-30 -15 -4 -8 -17 -15 -30 -15 -14 0 -27 -7 -30 -15 -4 -10 -20 -15 -45 -15
-26 0 -42 -5 -45 -15 -4 -10 -20 -15 -45 -15 -23 0 -41 -6 -46 -14 -5 -10 -27
-16 -61 -17 -29 -2 -57 -9 -63 -16 -8 -9 -38 -13 -93 -13 -51 0 -91 -5 -109
-15 -22 -11 -93 -14 -375 -15 -191 -1 -369 -3 -397 -5 -27 -1 -63 -3 -80 -4
-27 -1 -28 -3 -12 -15 9 -7 17 -23 17 -35 0 -12 7 -24 15 -27 8 -4 15 -17 15
-30 0 -14 7 -27 15 -30 8 -4 15 -17 15 -30 0 -14 7 -27 15 -30 8 -4 15 -17 15
-30 0 -14 7 -27 15 -30 8 -4 15 -17 15 -30 0 -14 7 -27 15 -30 8 -4 15 -17 15
-30 0 -14 7 -27 15 -30 8 -4 15 -16 15 -28 0 -12 10 -30 23 -41 21 -19 39 -20
343 -22 249 -1 327 2 347 12 14 7 67 15 118 16 62 3 94 8 97 17 2 8 25 12 67
12 43 0 68 5 79 15 8 8 31 15 51 15 22 0 38 6 41 15 4 9 19 15 39 15 19 0 40
7 49 15 8 8 28 15 45 15 16 0 36 7 45 15 8 8 24 15 36 15 11 0 23 7 26 15 4 8
17 15 30 15 14 0 27 7 30 15 4 8 17 15 30 15 14 0 27 7 30 15 4 8 17 15 30 15
14 0 27 7 30 15 4 8 16 15 28 15 12 0 33 13 46 30 14 16 34 29 45 30 12 0 32
13 45 30 14 16 34 29 44 30 11 0 39 20 63 45 23 25 50 45 59 45 21 0 304 283
304 304 0 9 27 42 60 74 33 33 60 68 60 78 1 10 14 30 30 44 17 13 30 34 30
46 0 12 7 24 15 28 8 3 15 16 15 30 0 13 7 26 15 30 8 3 15 16 15 28 1 13 14
34 30 48 17 13 30 34 30 46 0 12 7 24 15 28 10 3 15 19 15 45 0 25 5 41 15 45
8 3 15 16 15 30 0 13 7 26 15 30 10 3 15 19 15 45 0 25 5 41 15 45 9 3 15 19
15 41 0 20 7 43 15 51 9 10 15 34 15 64 0 33 5 50 15 54 11 4 15 22 15 75 0
47 4 71 13 74 9 3 12 80 12 342 0 262 -3 339 -12 343 -9 2 -13 27 -13 75 0 44
-6 83 -15 101 -8 15 -15 45 -15 66 0 21 -7 45 -15 54 -8 8 -15 31 -15 51 0 22
-6 38 -15 41 -8 4 -15 17 -15 30 0 14 -7 27 -15 30 -10 4 -15 20 -15 45 0 26
-5 42 -15 45 -8 4 -15 17 -15 30 0 14 -7 27 -15 30 -8 4 -15 17 -15 30 0 14
-7 27 -15 30 -8 4 -15 17 -15 30 0 14 -7 27 -15 30 -8 4 -15 16 -15 28 0 12
-13 33 -30 46 -16 14 -29 34 -30 45 0 12 -13 32 -30 45 -16 14 -29 34 -30 44
0 11 -20 39 -45 63 -25 23 -45 50 -45 59 0 21 -343 364 -364 364 -9 0 -36 20
-59 45 -24 25 -52 45 -63 45 -10 1 -30 14 -44 30 -13 17 -34 30 -46 30 -12 0
-24 7 -28 15 -3 8 -16 15 -28 15 -13 1 -34 14 -48 30 -13 17 -34 30 -46 30
-12 0 -24 7 -28 15 -3 8 -15 15 -26 15 -12 0 -28 7 -36 15 -9 8 -28 15 -43 15
-16 0 -34 7 -41 15 -7 8 -23 15 -35 15 -13 0 -25 7 -29 15 -3 10 -19 15 -45
15 -25 0 -41 5 -45 15 -3 10 -19 15 -45 15 -25 0 -41 5 -45 15 -4 11 -21 15
-60 15 -36 0 -56 4 -59 14 -4 9 -28 14 -83 15 -43 1 -87 8 -98 14 -16 9 -265
13 -998 15 l-978 3 0 -41z"/>
</g>
</svg>
