<?xml version="1.0" encoding="UTF-8"?>
<svg width="93px" height="19px" viewBox="0 0 93 19" version="1.1" xmlns="http://www.w3.org/2000/svg" xmlns:xlink="http://www.w3.org/1999/xlink">
    <title>39F74210-2241-4DA3-B883-971CF8AE15C1</title>
    <g id="Page-1" stroke="none" stroke-width="1" fill="none" fill-rule="evenodd">
        <g id="2021-Home" transform="translate(-392.000000, -412.000000)" fill="#FFFFFF" fill-rule="nonzero">
            <g id="A-spot" transform="translate(0.000000, 87.000000)">
                <g id="Logos" transform="translate(148.690685, 276.000000)">
                    <g id="glamour-logo" transform="translate(243.346815, 49.559173)">
                        <g id="Group" transform="translate(46.462499, 8.940827) scale(-1, 1) rotate(-180.000000) translate(-46.462499, -8.940827) translate(-0.037501, 0.440827)">
                            <path d="M7.74030631,15.4780975 C7.71859437,15.4360594 7.47976304,15.3835117 7.19750783,15.3730022 C6.90439665,15.3519831 6.67642129,15.3099449 6.67642129,15.2679068 C6.67642129,15.2153591 6.58957353,15.1838305 6.48101384,15.1838305 C6.37245414,15.1838305 5.93821536,15.0156779 5.50397657,14.8159968 C5.06973779,14.6163156 4.72234676,14.4902012 4.72234676,14.5217298 C4.72234676,14.5637679 4.64635498,14.5007107 4.55950722,14.3851058 C4.47265946,14.2800105 4.39666768,14.2274628 4.39666768,14.2800105 C4.39666768,14.3220486 4.29896395,14.2589914 4.16869232,14.1223674 C4.04927665,13.9857435 3.98414083,13.9437053 4.01670874,14.0277816 C4.06013262,14.1118579 3.88643711,13.9752339 3.63674981,13.7124955 C3.38706251,13.4497571 3.2459349,13.3341522 3.32192669,13.4497571 C3.39791848,13.565362 3.18079909,13.3972095 2.84426403,13.0819234 C2.22547376,12.5038989 2.06263422,12.3147273 2.42088122,12.5564466 C2.51858494,12.6300134 2.43173718,12.5354275 2.22547376,12.3357464 C2.01921034,12.1465747 1.84551483,11.9468935 1.84551483,11.9048554 C1.84551483,11.8628173 1.7478111,11.7577219 1.62839544,11.6631361 C1.50897977,11.5685503 1.48726783,11.5160026 1.57411559,11.5580407 C1.68267528,11.6000789 1.67181931,11.5790598 1.55240365,11.4739644 C1.44384395,11.3898882 1.38956411,11.2953023 1.42213201,11.2637737 C1.45469992,11.2322451 1.37870814,11.1586784 1.25929247,11.0851116 C1.12902084,11.0220544 1.04217308,10.916959 1.05302905,10.8433923 C1.09645293,10.6647302 0.803341749,10.0341581 0.683926083,10.0341581 C0.629646235,10.0341581 0.618790266,9.99211991 0.651358174,9.9290627 C0.683926083,9.87651502 0.673070114,9.82396734 0.607934296,9.82396734 C0.542798479,9.82396734 0.52108654,9.75040059 0.553654448,9.6663243 C0.597078327,9.58224802 0.564510418,9.50868127 0.4993746,9.50868127 C0.434238783,9.50868127 0.412526844,9.43511452 0.445094753,9.35103824 C0.488518631,9.26696195 0.466806692,9.1933952 0.401670874,9.1933952 C0.347391026,9.1933952 0.293111179,9.13033799 0.303967148,9.06728077 C0.314823118,8.63638981 0.26054327,8.35263235 0.162839544,8.40518003 C0.0977037262,8.44721817 0.0868477566,8.34212281 0.119415665,8.14244164 C0.162839544,7.97428907 0.151983574,7.82715557 0.0977037262,7.82715557 C0.0434238783,7.82715557 0,7.40677414 0,6.88129736 C0,6.36633011 0.0434238783,5.93543915 0.0977037262,5.93543915 C0.141127604,5.93543915 0.162839544,5.79881519 0.141127604,5.62015308 C0.108559696,5.45200051 0.141127604,5.30486701 0.195407452,5.30486701 C0.2496873,5.30486701 0.271399239,5.21028119 0.238831331,5.0946763 C0.206263422,4.97907141 0.227975361,4.88448559 0.293111179,4.88448559 C0.358246996,4.88448559 0.379958935,4.81091884 0.336535057,4.72684255 C0.303967148,4.64276627 0.325679087,4.56919952 0.390814905,4.56919952 C0.455950722,4.56919952 0.488518631,4.5061423 0.455950722,4.42206602 C0.423382813,4.33798973 0.434238783,4.25391345 0.477662661,4.23289438 C0.553654448,4.20136577 1.02046114,3.27652663 1.02046114,3.13990267 C1.02046114,3.10837406 1.12902084,2.99276917 1.27014844,2.87716428 C1.41127604,2.76155939 1.44384395,2.69850217 1.3569962,2.74054031 C1.27014844,2.78257846 1.38956411,2.63544496 1.63925141,2.40423517 C1.87808274,2.18353492 1.97578646,2.06793003 1.8563708,2.15200632 C1.72609916,2.2360826 1.80209095,2.13098725 1.9974984,1.910287 C2.39916928,1.50041511 2.56200882,1.39531975 2.33403346,1.71060582 C2.25804167,1.80519164 2.38831331,1.70009628 2.6054327,1.4688865 C2.83340806,1.23767672 2.98539163,1.12207182 2.94196775,1.20614811 C2.89854388,1.29022439 2.94196775,1.26920532 3.02881551,1.16410997 C3.12651924,1.04850507 3.20251102,0.995957396 3.20251102,1.05901461 C3.20251102,1.11156229 3.27850281,1.05901461 3.37620654,0.943409718 C3.46305429,0.827804826 3.56075802,0.743728541 3.58246996,0.764747612 C3.71274159,0.827804826 3.8538692,0.775257148 4.02756471,0.596595042 C4.13612441,0.502009221 4.34238783,0.4074234 4.48351543,0.396913864 C4.63549901,0.386404329 4.78748258,0.333856651 4.82005049,0.291818508 C4.8526184,0.249780365 5.04802585,0.197232687 5.25428927,0.186723152 C5.4605527,0.176213616 5.65596015,0.123665938 5.68852806,0.0816277951 C5.77537581,-0.033977097 8.41337642,-0.0234675614 8.41337642,0.0921373307 C8.41337642,0.134175473 8.51108015,0.155194545 8.63049581,0.123665938 C8.74991148,0.0921373307 8.8476152,0.113156402 8.8476152,0.176213616 C8.8476152,0.228761294 8.94531893,0.23927083 9.06473459,0.207742223 C9.19500623,0.16570408 9.28185399,0.186723152 9.28185399,0.260289901 C9.28185399,0.323347115 9.32527786,0.354875722 9.37955771,0.323347115 C9.43383756,0.281308972 9.49897338,0.291818508 9.52068532,0.333856651 C9.55325323,0.417932936 10.4760106,0.869842969 10.5845703,0.859333433 C10.6171382,0.859333433 10.7799778,0.974938325 10.9536733,1.13258136 C11.1165128,1.27971486 11.2902084,1.39531975 11.3336322,1.38481022 C11.3770561,1.37430068 11.5507516,1.51092464 11.7135912,1.67907721 C11.8764307,1.85773932 11.9741344,1.92079653 11.9307106,1.83672025 C11.8872867,1.75264396 12.0392703,1.86824886 12.2672456,2.09945864 C12.495221,2.33066842 12.853468,2.6774831 13.0705874,2.87716428 C13.2877068,3.06633592 13.3636985,3.17143128 13.2442829,3.09786453 C13.1248672,3.02429778 13.2225709,3.1504122 13.4614023,3.36060292 C13.7002336,3.58130317 13.8305052,3.72843666 13.7436575,3.67588899 C13.6459538,3.62334131 13.6676657,3.68639852 13.7870814,3.87557016 C13.8956411,4.02270366 14.0259127,4.14881809 14.0910485,4.14881809 C14.1561843,4.14881809 14.1670403,4.1803467 14.1344724,4.2118753 C14.0584806,4.28544205 14.4927194,5.12620491 14.633847,5.17875258 C14.6772709,5.19977166 14.6881268,5.26282887 14.644703,5.31537655 C14.612135,5.36792423 14.633847,5.40996237 14.6989828,5.40996237 C14.7641186,5.40996237 14.7858306,5.48352912 14.7532627,5.5676054 C14.7098388,5.65168169 14.7424067,5.72524844 14.8075425,5.72524844 C14.8726783,5.72524844 14.8943903,5.79881519 14.8618223,5.88289147 C14.8183985,5.96696776 14.8401104,6.04053451 14.8835343,6.04053451 C14.9378141,6.04053451 14.992094,6.21919661 15.0138059,6.43989686 C15.0246619,6.65008757 15.0789417,6.83925922 15.1223656,6.86027829 C15.1766455,6.87078782 15.1875014,7.02843086 15.1657895,7.19658343 C15.1332216,7.38575507 15.1657895,7.5118695 15.2417813,7.5118695 C15.3069171,7.5118695 15.3611969,7.659003 15.3611969,7.8376651 C15.3611969,8.00581767 15.3177731,8.1319321 15.2634932,8.10040349 C15.2200693,8.06887489 13.559106,8.03734628 11.5941755,8.03734628 L8.01170555,8.02683674 L7.5991787,7.60645532 C7.36034737,7.38575507 7.21921977,7.19658343 7.27349961,7.19658343 C7.31692349,7.19658343 7.27349961,7.10199761 7.16493992,6.98639272 C7.05638022,6.87078782 6.92610859,6.80773061 6.86097277,6.84976875 C6.79583695,6.88129736 6.78498098,6.86027829 6.82840486,6.78671154 C6.87182874,6.72365432 6.82840486,6.63957804 6.74155711,6.60804943 C6.6004295,6.55550175 6.56786159,6.36633011 6.56786159,5.7147389 L6.56786159,4.88448559 L9.39041368,4.88448559 C10.9428173,4.88448559 12.2129658,4.84244744 12.2129658,4.8004093 C12.2129658,4.74786162 12.0826941,4.60072812 11.9198546,4.45359462 C11.767871,4.31697066 11.6701673,4.27493252 11.7135912,4.3590088 C11.757015,4.44308509 11.6918792,4.40104695 11.5724636,4.25391345 C11.4530479,4.10677995 11.3444882,4.0332132 11.3444882,4.08576088 C11.3444882,4.14881809 11.2793524,4.09627041 11.1925046,3.98066552 C11.1056569,3.87557016 10.9970972,3.81251295 10.9645293,3.85455109 C10.9211054,3.89658923 10.8125457,3.85455109 10.7256979,3.77047481 C10.6279942,3.68639852 10.4760106,3.64436038 10.356595,3.67588899 C10.2371793,3.71792713 10.1503316,3.69690806 10.1503316,3.62334131 C10.1503316,3.56028409 10.0417719,3.53926502 9.87893231,3.58130317 C9.7052368,3.62334131 9.60753307,3.60232224 9.60753307,3.52875549 C9.60753307,3.4446792 9.4555495,3.43416967 9.15158235,3.47620781 C8.82590326,3.52875549 8.72819954,3.51824595 8.78247939,3.43416967 C8.83675923,3.35009338 8.78247939,3.30805524 8.64135178,3.30805524 C8.51108015,3.30805524 8.41337642,3.36060292 8.41337642,3.42366013 C8.41337642,3.50773642 8.25053688,3.52875549 7.92485779,3.49722688 C7.65345855,3.46569827 7.43633916,3.48671734 7.43633916,3.53926502 C7.43633916,3.5918127 7.33863543,3.60232224 7.21921977,3.57079363 C7.0998041,3.52875549 7.00210038,3.54977456 7.00210038,3.61283177 C7.00210038,3.67588899 6.92610859,3.69690806 6.83926083,3.66537945 C6.75241308,3.62334131 6.67642129,3.65486992 6.67642129,3.71792713 C6.67642129,3.78098434 6.64385338,3.82302249 6.6004295,3.82302249 C6.33988623,3.78098434 6.13362281,3.86506063 5.86222357,4.12779902 C5.68852806,4.28544205 5.59082433,4.33798973 5.63424821,4.25391345 C5.68852806,4.16983716 5.53654448,4.28544205 5.30856912,4.52716137 C5.06973779,4.75837116 4.98289003,4.83193791 5.1023057,4.68480441 C5.27600121,4.46410416 5.28685718,4.44308509 5.12401764,4.55868998 C4.88518631,4.73735209 4.17954829,5.58862447 4.36409977,5.48352912 C4.4618035,5.4204719 4.48351543,5.45200051 4.44009156,5.55709587 C4.40752365,5.65168169 4.33153186,5.70422937 4.28810798,5.67270076 C4.17954829,5.60964355 3.89729308,6.25072522 3.94071696,6.4504064 C3.96242889,6.52397315 3.92986099,6.55550175 3.86472517,6.51346361 C3.78873338,6.481935 3.77787741,6.51346361 3.81044532,6.60804943 C3.8538692,6.70263525 3.82130129,6.776202 3.7453095,6.776202 C3.66931772,6.776202 3.63674981,6.83925922 3.66931772,6.9233355 C3.70188562,7.00741179 3.68017369,7.09148807 3.6041819,7.12301668 C3.41963042,7.17556436 3.41963042,9.84498641 3.6041819,9.89753409 C3.68017369,9.9290627 3.70188562,10.013139 3.66931772,10.0972153 C3.63674981,10.1812916 3.66931772,10.2443488 3.7453095,10.2443488 C3.81044532,10.2443488 3.84301323,10.2863869 3.79958935,10.3389346 C3.76702144,10.3914823 3.82130129,10.5175967 3.91900502,10.601673 C4.00585277,10.6962588 4.06013262,10.7698255 4.02756471,10.7698255 C3.98414083,10.7698255 4.21211619,11.0010353 4.51608334,11.2953023 C4.82005049,11.5790598 5.11316167,11.7892505 5.16744152,11.7577219 C5.22172137,11.7261933 5.26514524,11.7577219 5.26514524,11.8207791 C5.26514524,11.8943459 5.351993,11.9153649 5.4931206,11.8733268 C5.66681612,11.8207791 5.69938403,11.8312886 5.64510418,11.9258745 C5.57996836,12.0309698 5.63424821,12.0519889 5.89479148,11.9994412 C6.1010549,11.9574031 6.24218251,11.9784221 6.24218251,12.0309698 C6.24218251,12.094027 6.55700562,12.1360652 6.94782053,12.1360652 C7.38205931,12.1360652 7.65345855,12.094027 7.65345855,12.0204603 C7.65345855,11.9468935 7.77287422,11.936384 7.97913764,11.9784221 C8.19625703,12.0204603 8.30481672,12.0099508 8.30481672,11.9258745 C8.30481672,11.8523077 8.39166448,11.8312886 8.52193612,11.8733268 C8.64135178,11.9153649 8.73905551,11.8943459 8.73905551,11.8312886 C8.73905551,11.7682314 8.81504729,11.7472124 8.90189505,11.778741 C8.98874281,11.8207791 9.06473459,11.79976 9.06473459,11.7472124 C9.06473459,11.6946647 9.12987041,11.642117 9.2058622,11.642117 C9.4555495,11.642117 10.3240271,11.2007165 10.6497062,10.9064495 C10.8234017,10.7488065 11.051377,10.6121825 11.1599367,10.6121825 C11.2684964,10.601673 11.6375994,10.9064495 12.0609822,11.3583595 C12.4517971,11.7892505 12.8209001,12.1255556 12.8860359,12.1045366 C12.9511717,12.094027 13.0163075,12.1991224 13.0380195,12.3462559 C13.0705874,12.4828799 13.1357232,12.6300134 13.200859,12.6720515 C13.3636985,12.7666373 11.9958464,13.544343 11.1925046,13.8175909 C10.0526278,14.1959342 8.96703087,14.3640867 8.15283315,14.29052 C5.69938403,14.0698197 3.86472517,12.682561 3.12651924,10.5175967 C2.56200882,8.83607099 2.81169612,6.71314479 3.73445353,5.31537655 C5.62339224,2.46729239 10.0743398,1.92079653 12.4300852,4.24340391 C13.0271635,4.83193791 13.6459538,5.87238194 13.7870814,6.53448268 L13.8630731,6.88129736 L11.2684964,6.90231643 L8.68477566,6.93384504 L8.68477566,7.24913111 L8.68477566,7.56441718 L11.5616076,7.59594578 C13.1465792,7.60645532 14.4927194,7.59594578 14.5687112,7.57492671 C14.7749746,7.49085043 14.4492955,6.32429197 13.9390649,5.31537655 C12.7123404,2.89818335 10.0092039,1.71060582 7.0998041,2.29913982 C5.75366387,2.58289728 4.28810798,3.45518874 3.45219832,4.4746137 C2.61628867,5.49403865 2.00835437,7.23862157 2.00835437,8.58384213 C2.00835437,9.41409545 2.29060958,10.5070872 2.69228045,11.34785 C3.76702144,13.5338334 6.13362281,14.9736398 8.64135178,14.9736398 C9.92235619,14.9736398 11.6375994,14.4902012 12.7666202,13.8175909 C13.4614023,13.407719 13.7219455,13.4917953 13.4179784,14.0277816 C13.3094187,14.2274628 13.1465792,14.3956153 13.0705874,14.3956153 C12.842612,14.4061249 11.9958464,14.7949777 11.9958464,14.8895635 C11.9958464,14.9316017 11.9632785,14.9631303 11.9198546,14.9526207 C11.767871,14.9210921 10.2588912,15.330964 10.2588912,15.4150403 C10.2588912,15.4570784 10.0851957,15.4570784 9.87893231,15.4255498 C9.66181292,15.3940212 9.49897338,15.4150403 9.49897338,15.467588 C9.49897338,15.5937024 7.78373018,15.6042119 7.74030631,15.4780975 Z" id="Path"></path>
                            <path d="M31.1856238,15.3059441 C30.6380387,14.7846165 30.224556,14.3484035 30.280432,14.3484035 C30.3363081,14.3484035 30.2916072,14.2526495 30.1798552,14.1356167 C30.0681031,14.018584 29.9451758,13.9441086 29.9116502,13.9760266 C29.8669493,13.9973053 29.8222485,13.9121906 29.8222485,13.7951578 C29.8110733,13.6674858 29.7551973,13.5398137 29.7104964,13.5078957 C29.6657956,13.4759777 29.5987444,13.3483056 29.5875692,13.2312728 C29.5652187,13.1142401 29.5093427,12.9972074 29.4758171,12.9652893 C29.4311162,12.9333713 29.3752402,12.8163386 29.364065,12.6993058 C29.3417146,12.5822731 29.2858385,12.4652404 29.2523129,12.4333224 C29.2076121,12.4014043 29.1517361,12.2843716 29.1405608,12.1673389 C29.1182104,12.0503061 29.0623344,11.9332734 29.0288088,11.9013554 C28.9841079,11.8694373 28.9282319,11.7524046 28.9170567,11.6353719 C28.8947063,11.5183391 28.8388302,11.4013064 28.8053046,11.3693884 C28.7606038,11.3374703 28.7047278,11.2204376 28.6935525,11.1034049 C28.6712021,10.9863721 28.6153261,10.8693394 28.5818005,10.8374214 C28.5370996,10.8055034 28.4812236,10.6884706 28.4700484,10.5714379 C28.447698,10.4544051 28.3918219,10.3373724 28.3582963,10.3054544 C28.3135955,10.2735364 28.2577194,10.1565036 28.2465442,10.0394709 C28.2241938,9.92243815 28.1571426,9.80540542 28.1012665,9.79476608 C28.0453905,9.7734874 28.0230401,9.70965136 28.0677409,9.65645466 C28.1012665,9.60325796 28.0677409,9.5607006 28.0006897,9.5607006 C27.9224632,9.5607006 27.9001128,9.48622522 27.9336384,9.39047116 C27.967164,9.30535644 27.9559888,9.25215975 27.9001128,9.28407777 C27.8442368,9.31599578 27.8107111,9.22024173 27.8107111,9.07129097 C27.8107111,8.91170087 27.7660103,8.76275011 27.7101343,8.72019275 C27.6542582,8.68827474 27.587207,8.56060266 27.5760318,8.44356992 C27.5536814,8.32653718 27.4978053,8.20950444 27.4642797,8.17758642 C27.4195789,8.1456684 27.3637028,8.02863567 27.3525276,7.91160293 C27.3301772,7.79457019 27.2743012,7.67753745 27.2407756,7.64561943 C27.1960747,7.61370141 27.1401987,7.49666868 27.1290235,7.37963594 C27.1066731,7.2626032 27.0396218,7.13493112 26.9725706,7.1030131 C26.9166945,7.07109508 26.8719937,6.9966197 26.8831689,6.943423 C26.9055193,6.79447225 26.6373143,6.04971846 26.5590879,6.04971846 C26.5143871,6.04971846 26.4808614,5.94332506 26.4696862,5.81565298 C26.458511,5.69862025 26.402635,5.56030883 26.3579342,5.52839081 C26.3132333,5.49647279 26.2461821,5.36880071 26.2350069,5.25176797 C26.2126565,5.13473524 26.1567804,5.0177025 26.1232548,4.98578448 C26.078554,4.95386646 26.0226779,4.83683372 26.0115027,4.71980098 C25.9891523,4.60276824 25.9332763,4.48573551 25.8997506,4.45381749 C25.8550498,4.42189947 25.7991738,4.30486673 25.7879986,4.18783399 C25.7656481,4.07080125 25.7097721,3.95376852 25.6762465,3.9218505 C25.6315457,3.88993248 25.5756696,3.77289974 25.5644944,3.655867 C25.542144,3.53883426 25.486268,3.42180153 25.4527423,3.38988351 C25.4080415,3.35796549 25.3521655,3.24093275 25.3409903,3.12390001 C25.3186398,3.00686727 25.2627638,2.88983453 25.2292382,2.85791651 C25.1845374,2.8259985 25.1286613,2.70896576 25.1174861,2.59193302 C25.0951357,2.47490028 25.0392597,2.35786754 25.005734,2.32594952 C24.9610332,2.2940315 24.9051572,2.17699877 24.893982,2.05996603 C24.8716315,1.94293329 24.8157555,1.82590055 24.7822299,1.79398253 C24.737529,1.76206451 24.681653,1.64503178 24.6704778,1.52799904 C24.6481274,1.4109663 24.5922513,1.29393356 24.5587257,1.26201554 C24.5140249,1.23009752 24.4693241,1.10242544 24.4469736,0.964114027 C24.413448,0.719409211 24.413448,0.719409211 25.6874217,0.740687891 L26.9725706,0.751327231 L27.7324847,1.5173597 L28.503574,2.27275282 L27.7213095,1.58119574 L26.9278697,0.889638648 L27.7771855,1.69822847 C28.235369,2.14508075 28.6153261,2.560015 28.6265013,2.60257236 C28.6265013,2.65576906 28.6712021,2.8259985 28.715903,2.99622793 L28.8053046,3.28349011 L31.2973759,3.28349011 C33.7559216,3.28349011 34.2029299,3.25157209 34.0800026,3.06006397 C34.046477,3.00686727 34.0800026,2.96430991 34.1470539,2.96430991 C34.2252803,2.96430991 34.2588059,2.90047387 34.2252803,2.81535916 C34.1917547,2.73024444 34.2141051,2.64512972 34.2699811,2.62385104 C34.3258572,2.60257236 34.3929084,2.48553962 34.4040836,2.3472282 C34.4040836,2.21955613 34.4599597,2.11316273 34.5158357,2.11316273 C34.5717118,2.11316273 34.5940622,2.03868735 34.5493613,1.95357263 C34.5158357,1.86845791 34.5270109,1.79398253 34.5717118,1.79398253 C34.6275878,1.79398253 34.7505151,1.55991706 34.8622672,1.27265488 L35.0522457,0.751327231 L35.8903863,0.708769871 L36.7285268,0.676851852 L37.6113682,1.52799904 C38.3154063,2.19827745 38.4830344,2.41106424 38.3712823,2.51745764 C38.2930559,2.59193302 38.2818807,2.64512972 38.3489319,2.64512972 C38.404808,2.64512972 38.3824576,2.68768708 38.3042311,2.74088378 C38.2260046,2.78344114 38.1477782,2.93239189 38.136603,3.04942463 C38.1254278,3.17709671 38.0807269,3.28349011 38.0248509,3.28349011 C37.9689749,3.28349011 37.9466245,3.34732615 37.9689749,3.41116219 C38.0025005,3.48563756 37.9466245,3.61330964 37.868398,3.69842436 C37.7789963,3.77289974 37.7342955,3.90057182 37.7678211,3.98568654 C37.8013468,4.06016191 37.7789963,4.13463729 37.7231203,4.15591597 C37.6784195,4.17719465 37.6113682,4.28358805 37.5890178,4.40062079 C37.5778426,4.51765353 37.5219666,4.63468626 37.4772657,4.66660428 C37.4437401,4.6985223 37.3878641,4.81555504 37.3655137,4.93258778 C37.3543385,5.04962052 37.2872872,5.1772926 37.2425864,5.20921061 C37.1978855,5.24112863 37.1420095,5.37944005 37.1308343,5.49647279 C37.1196591,5.62414487 37.0749583,5.73053827 37.0190822,5.73053827 C36.9632062,5.73053827 36.9408558,5.7943743 36.9743814,5.87948902 C37.007907,5.96460374 36.9967318,6.04971846 36.9408558,6.07099714 C36.8961549,6.09227582 36.8291037,6.19866922 36.8067533,6.31570196 C36.7955781,6.43273469 36.7285268,6.56040677 36.683826,6.59232479 C36.6391252,6.62424281 36.5832491,6.76255423 36.5720739,6.87958697 C36.5608987,7.00725904 36.5161979,7.11365244 36.4603218,7.11365244 C36.4044458,7.11365244 36.3820954,7.18812782 36.4267962,7.27324254 C36.4603218,7.35835726 36.4379714,7.43283264 36.3820954,7.43283264 C36.3262194,7.43283264 36.3150441,7.50730802 36.3485698,7.61370141 C36.4044458,7.74137349 36.3820954,7.76265217 36.2703433,7.69881613 C36.1585912,7.63498009 36.1362408,7.65625877 36.1921169,7.78393085 C36.2256425,7.87968491 36.2144673,7.96479963 36.1585912,7.98607831 C36.1138904,8.00735699 36.0468392,8.11375038 36.0244887,8.23078312 C36.0133135,8.34781586 35.9462623,8.47548794 35.9015615,8.50740596 C35.8568606,8.53932398 35.8009846,8.6776354 35.7898094,8.79466813 C35.7786342,8.92234021 35.7451086,9.02873361 35.7004077,9.02873361 C35.6221813,9.02873361 35.4545532,9.49686456 35.443378,9.7202907 C35.4322027,9.78412674 35.3986771,9.84796278 35.3539763,9.87988079 C35.3204507,9.91179881 35.2645746,10.0288316 35.2422242,10.1458643 C35.231049,10.262897 35.1639978,10.3905691 35.1192969,10.4224871 C35.0745961,10.4544051 35.0187201,10.5927166 35.0075449,10.7097493 C34.9963696,10.8374214 34.9516688,10.9438148 34.8957928,10.9438148 C34.8399167,10.9438148 34.8175663,11.0076508 34.8510919,11.0927655 C34.8846176,11.1778803 34.8734424,11.262995 34.8175663,11.2842737 C34.7728655,11.3055523 34.7058142,11.4119457 34.6834638,11.5289785 C34.6722886,11.6460112 34.6052374,11.7736833 34.5605365,11.8056013 C34.5158357,11.8375193 34.4599597,11.9758307 34.4487845,12.0928635 C34.4376093,12.2205356 34.4040836,12.326929 34.3593828,12.326929 C34.2811564,12.326929 34.1135282,12.7950599 34.102353,13.018486 C34.0911778,13.0823221 34.0576522,13.1461581 34.0129514,13.1780761 C33.9794258,13.2099942 33.9235497,13.3270269 33.9011993,13.4440596 C33.8900241,13.5610924 33.8341481,13.6781251 33.7894472,13.7100431 C33.7559216,13.7419611 33.7000456,13.8589939 33.6776951,13.9760266 C33.6665199,14.0930594 33.5994687,14.2207314 33.5547679,14.2526495 C33.510067,14.2845675 33.454191,14.4228789 33.4430158,14.5399116 C33.4318406,14.6675837 33.3871397,14.7739771 33.3312637,14.7739771 C33.2753877,14.7739771 33.2530373,14.8378132 33.2865629,14.9229279 C33.3200885,15.0080426 33.2977381,15.0931573 33.2306868,15.114436 C33.1636356,15.1357147 33.1189348,15.2846654 33.1189348,15.4442555 C33.1189348,15.6038456 33.0742339,15.6995997 33.0183579,15.6676817 C32.9624819,15.6357636 32.9513066,15.6889603 32.9848323,15.7740751 C33.0183579,15.8698291 32.9960075,15.9443045 32.9289562,15.9443045 C32.861905,15.9443045 32.8172042,16.0081405 32.8395546,16.0826159 C32.8507298,16.1570913 32.7278025,16.2209273 32.5266488,16.242206 C32.2360934,16.2634847 32.05729,16.1464519 31.1856238,15.3059441 Z M32.6384008,15.1250753 C32.6831017,15.0186819 32.9066058,14.4547969 33.1412852,13.8696332 C33.6441695,12.6035518 37.331988,3.42180153 37.4437401,3.15581803 C37.5107914,2.99622793 37.4549153,2.96430991 37.1308343,2.96430991 L36.7508772,2.96430991 L36.3373946,4.00696522 C36.1138904,4.57085023 35.8903863,5.1240959 35.8456854,5.23048929 C35.767459,5.40071873 35.5216044,5.42199741 32.4148967,5.42199741 L29.0623344,5.42199741 L28.5929757,4.23039135 C28.3359459,3.58139162 28.1012665,3.01750661 28.0677409,2.99622793 C28.0453905,2.97494925 27.8665872,2.96430991 27.6877839,2.98558859 L27.3525276,3.01750661 L29.3528898,7.85840623 C30.4480601,10.5182412 31.5879313,13.2844695 31.8784867,13.9973053 C32.1802173,14.7101411 32.4484223,15.3059441 32.4819479,15.3059441 C32.5266488,15.3059441 32.5937,15.2208294 32.6384008,15.1250753 Z" id="Shape"></path>
                            <path d="M30.9141214,9.23322619 C30.0626338,7.23361243 29.3492252,5.56372222 29.3262121,5.51054101 C29.3031989,5.45735979 30.6494699,5.41481481 32.467511,5.41481481 C34.9644409,5.41481481 35.6433297,5.44672354 35.60881,5.55308598 C34.9759475,7.16979497 32.5940835,12.8601852 32.5365505,12.8601852 C32.5020308,12.8495489 31.765609,11.2222037 30.9141214,9.23322619 Z M31.5469838,9.04177381 C31.5124641,8.98859259 31.5354773,8.91413889 31.6045168,8.87159392 C31.6735563,8.82904894 31.6965695,8.75459524 31.6620497,8.70141402 C31.6160234,8.6482328 31.6390366,8.60568783 31.7080761,8.60568783 C31.8116354,8.60568783 32.018754,8.0100582 31.9727277,7.83987831 C31.9612211,7.78669709 31.9957408,7.75478836 32.0532738,7.75478836 C32.1568331,7.75478836 32.3639517,7.14852249 32.3179253,6.98897884 C32.3064188,6.93579762 32.3524451,6.90388889 32.4214847,6.90388889 C32.4905242,6.90388889 32.5135374,6.8081627 32.467511,6.68052778 C32.4099781,6.53162037 32.4214847,6.47843915 32.5135374,6.52098413 C32.5940835,6.57416534 32.6170967,6.53162037 32.5710703,6.43589418 C32.5365505,6.34016799 32.5480571,6.26571429 32.6055901,6.26571429 C32.663123,6.26571429 32.720656,6.19126058 32.720656,6.10617063 C32.720656,5.97853571 32.4905242,5.94662698 31.4089048,5.94662698 C30.6954962,5.94662698 30.1086602,5.96789947 30.1086602,5.9998082 C30.1086602,6.06362566 30.4998842,6.84007143 30.5689237,6.90388889 C30.6034435,6.93579762 30.6494699,7.0527963 30.6609765,7.16979497 C30.6839896,7.28679365 30.7415226,7.40379233 30.7760423,7.43570106 C30.8220687,7.46760979 30.8796017,7.58460847 30.8911082,7.70160714 C30.9141214,7.81860582 30.9716544,7.9356045 31.0061741,7.96751323 C31.0522005,7.99942196 31.1097334,8.11642063 31.12124,8.23341931 C31.1442532,8.35041799 31.2132927,8.47805291 31.2823323,8.50996164 C31.3398652,8.54187037 31.3858916,8.61632407 31.374385,8.66950529 C31.3513718,8.82904894 31.4664377,9.1375 31.5469838,9.1375 C31.5815036,9.1375 31.5930102,9.09495503 31.5469838,9.04177381 Z" id="Shape"></path>
                            <path d="M61.9298771,15.4624417 C61.9298771,15.4098662 61.7921339,15.388836 61.6226038,15.4203813 C61.4530737,15.4624417 61.2941392,15.4414115 61.272948,15.388836 C61.2517567,15.3362606 61.1034179,15.2836851 60.9232921,15.2626549 C60.753762,15.2416248 60.5842319,15.1995644 60.552445,15.157504 C60.5206581,15.1259588 60.4041062,15.0733833 60.2875543,15.0523531 C60.1710023,15.041838 60.0544504,14.9997777 60.0226635,14.9682324 C59.9061115,14.8525664 59.0690566,14.463508 59.1220348,14.5581438 C59.1644173,14.6107193 59.1114392,14.6212344 59.0266741,14.5896891 C58.9313134,14.5581438 58.8783353,14.4845382 58.9101222,14.4424778 C58.9525047,14.3688722 58.7194008,14.2111458 58.5286794,14.1901156 C58.4862969,14.1796005 58.3485537,14.0639345 58.2214061,13.9167233 C58.0942586,13.769512 58.0200891,13.7274516 58.0624717,13.8115724 C58.1048542,13.8956931 57.9459197,13.7589969 57.7128158,13.5066347 C57.4903076,13.2542725 57.0876736,12.8546991 56.8333784,12.623367 C56.5790833,12.392035 56.4625313,12.276369 56.5790833,12.3499747 C56.7909959,12.4866709 56.7909959,12.4866709 56.5896789,12.2658539 C56.4837226,12.1291578 56.356575,12.045037 56.3247881,12.0765823 C56.2824056,12.0976125 56.1870449,12.0240068 56.1128755,11.8978257 C56.0069192,11.7295843 56.0069192,11.698039 56.1234711,11.7716447 C56.1976405,11.813705 56.1022799,11.7085541 55.9221541,11.5297976 C55.5830939,11.2143448 55.4559463,10.9935279 55.6890502,11.1302241 C55.752624,11.1722845 55.7420284,11.1091939 55.6572633,10.9830128 C55.5830939,10.8568317 55.4877332,10.7621959 55.4453507,10.7621959 C55.3182031,10.7621959 55.1168861,10.3205621 55.0745036,9.97356405 C55.0533124,9.80532259 55.0003342,9.64759622 54.9367604,9.62656604 C54.8837822,9.60553586 54.8731866,9.52141513 54.9049735,9.4372944 C54.9367604,9.35317367 54.9049735,9.29008312 54.8413997,9.29008312 C54.7778259,9.29008312 54.7566347,9.21647748 54.7884216,9.13235675 C54.8308041,9.04823602 54.8096128,8.97463038 54.7672303,8.97463038 C54.7142521,8.97463038 54.661274,8.77484365 54.6506784,8.53299655 C54.6294871,8.29114945 54.5871046,8.07033253 54.544722,8.03878726 C54.4281701,7.95466653 54.4387657,5.71495209 54.5553177,5.71495209 C54.5977002,5.71495209 54.6188915,5.59928609 54.5977002,5.45207481 C54.5659133,5.31537863 54.5871046,5.17868244 54.6400827,5.16816735 C54.6824653,5.14713717 54.7354434,4.97889571 54.7566347,4.78962406 C54.7672303,4.61086751 54.8096128,4.45314114 54.8413997,4.45314114 C54.9155691,4.45314114 55.0850992,3.92738658 55.063908,3.80120549 C55.0533124,3.74863003 55.0956949,3.71708476 55.1592687,3.71708476 C55.2122468,3.71708476 55.2334381,3.67502439 55.2016512,3.61193384 C55.1698643,3.55935839 55.1910556,3.50678293 55.2546293,3.50678293 C55.3182031,3.50678293 55.34999,3.46472257 55.3182031,3.41214711 C55.2864162,3.35957165 55.3287988,3.28596601 55.4241594,3.25442074 C55.5195201,3.21236038 55.5724983,3.15978492 55.5407114,3.11772456 C55.4983289,3.08617928 55.551307,2.99154346 55.6572633,2.90742273 C55.7632197,2.81278691 55.7738153,2.78124164 55.6784546,2.83381709 C55.5936896,2.87587746 55.7420284,2.707636 56.0175148,2.4657889 C56.2930012,2.2239418 56.6956352,1.82436833 56.9075478,1.58252123 C57.1194605,1.34067413 57.2572037,1.21449304 57.2148212,1.29861377 C57.1300561,1.45634014 57.5538814,1.1408874 57.7022202,0.951615758 C57.7340071,0.899040302 57.7975809,0.856979937 57.8293678,0.867495028 C57.8717503,0.867495028 58.168428,0.751829024 58.4862969,0.615132838 C58.8147615,0.467921561 59.1220348,0.352255557 59.175013,0.352255557 C59.2385867,0.352255557 59.2809693,0.310195192 59.2809693,0.247104644 C59.2809693,0.194529188 59.3551387,0.173499006 59.4399037,0.205044279 C59.5246688,0.247104644 59.5988382,0.215559371 59.5988382,0.152468823 C59.5988382,0.0893782756 59.7153902,0.0683480931 59.9167072,0.110408458 C60.0968329,0.141953732 60.2345761,0.131438641 60.2345761,0.0788631844 C60.2345761,-0.0262877281 62.4914456,-0.0262877281 62.65038,0.0788631844 C62.7139538,0.110408458 62.8305058,0.110408458 62.9258665,0.0788631844 C63.0212271,0.0368028194 63.0953966,0.0683480931 63.0953966,0.141953732 C63.0953966,0.215559371 63.169566,0.247104644 63.2755223,0.205044279 C63.370883,0.162983914 63.4768393,0.184014097 63.5086262,0.236589553 C63.5404131,0.289165009 63.6675607,0.352255557 63.7841126,0.373285739 C63.9006646,0.383800831 64.0172165,0.436376287 64.0490034,0.467921561 C64.1549597,0.594102656 65.0026102,0.983161032 65.0026102,0.909555393 C65.0026102,0.856979937 65.0555884,0.909555393 65.1191622,1.01470631 C65.1827359,1.10934213 65.267501,1.17243267 65.3204792,1.1408874 C65.3628617,1.10934213 65.4370311,1.16191758 65.468818,1.2565534 C65.5006049,1.34067413 65.5747743,1.39324959 65.6277525,1.35118923 C65.6913263,1.31964395 65.7866869,1.39324959 65.8502607,1.50891559 C65.9138345,1.6245816 65.9985996,1.70870233 66.0409821,1.69818724 C66.0833646,1.67715705 66.475403,2.02415507 66.9098239,2.45527381 C67.3442447,2.88639255 67.6091355,3.1808151 67.4925836,3.09669437 C67.3760316,3.02308873 67.4502011,3.10720946 67.6515181,3.3069962 C67.8528351,3.49626784 68.0117695,3.68553948 68.0011739,3.72759985 C67.9905783,3.75914512 68.1177258,3.93790167 68.2766603,4.11665822 C68.4461904,4.29541477 68.5627424,4.46365623 68.5309555,4.49520151 C68.4991686,4.51623169 68.5839336,4.58983733 68.7004856,4.66344297 C68.8276331,4.72653352 68.9123982,4.83168443 68.9018026,4.90529007 C68.8700157,5.06301644 69.1349065,5.71495209 69.2302671,5.71495209 C69.2726497,5.71495209 69.3044366,5.82010301 69.3150322,5.9462841 C69.3256278,6.0619501 69.3892016,6.19864629 69.463371,6.24070666 C69.5269448,6.29328211 69.5481361,6.37740284 69.5057535,6.45100848 C69.4421798,6.5456443 69.463371,6.56667448 69.5587317,6.50358394 C69.664688,6.44049339 69.6752837,6.48255375 69.6223055,6.70337067 C69.579923,6.86109704 69.6011142,6.97676304 69.664688,6.97676304 C69.7282618,6.97676304 69.7494531,7.08191396 69.7070705,7.23964032 C69.6752837,7.3868516 69.6858793,7.50251761 69.7282618,7.50251761 C69.78124,7.50251761 69.8236225,7.95466653 69.8236225,8.50145127 C69.8236225,9.04823602 69.78124,9.50038494 69.7388574,9.50038494 C69.6858793,9.50038494 69.6752837,9.64759622 69.7176662,9.81583768 C69.7600487,10.0261395 69.7494531,10.1312904 69.664688,10.1312904 C69.5905186,10.1312904 69.5693273,10.2048961 69.6011142,10.310047 C69.6434968,10.4046828 69.6117099,10.5203488 69.5481361,10.5624092 C69.4845623,10.6044695 69.4315841,10.7516808 69.4315841,10.9094072 C69.4315841,11.0566184 69.378606,11.1827995 69.3256278,11.1827995 C69.2726497,11.1827995 69.262054,11.235375 69.2938409,11.2984655 C69.3362234,11.3615561 69.2726497,11.4982523 69.1455021,11.6139183 C68.9441851,11.8031899 68.9123982,11.8873107 68.9335895,12.0870974 C68.9335895,12.1186427 68.8488244,12.2132785 68.7428681,12.2973992 C68.6369118,12.3710049 68.5945292,12.4446105 68.6475074,12.4446105 C68.6898899,12.4446105 68.6263161,12.5392463 68.4885729,12.6654274 C68.3508297,12.7810934 68.3084472,12.844184 68.3932123,12.8021236 C68.4779773,12.7600632 68.3826166,12.8862443 68.170704,13.0860311 C67.969387,13.2858178 67.8952176,13.3699385 68.0117695,13.2858178 C68.1389171,13.2016971 68.0647477,13.306848 67.8740263,13.5276649 C67.481988,13.9377534 67.3230535,14.0429044 67.5455617,13.7379667 C67.6197312,13.6328158 67.5349661,13.6959064 67.3548404,13.885178 C67.1747146,14.0639345 67.0051845,14.1901156 66.9733976,14.1585704 C66.9416108,14.1270251 66.8886326,14.1796005 66.8462501,14.2742364 C66.8144632,14.3688722 66.7402938,14.4214476 66.6873156,14.3899024 C66.6449331,14.3583571 66.5495724,14.4319627 66.4859986,14.5476287 C66.4224248,14.6632947 66.3058729,14.7474155 66.2422991,14.7369004 C66.1151515,14.7053551 65.2251185,15.0523531 65.1085665,15.1785342 C65.0767796,15.2100795 64.9178452,15.2416248 64.7377194,15.2626549 C64.5681893,15.2836851 64.4092549,15.3362606 64.3880636,15.388836 C64.3668723,15.4414115 64.1867466,15.4519266 63.9854296,15.4203813 C63.7841126,15.388836 63.6251781,15.4098662 63.6251781,15.4624417 C63.6251781,15.5150171 63.2437354,15.5675926 62.7775276,15.5675926 C62.2795329,15.5675926 61.9298771,15.5255322 61.9298771,15.4624417 Z M64.260916,14.7999909 C66.5495724,14.2637213 68.3826166,12.4971859 68.975972,10.2364413 C69.2196715,9.33214348 69.2196715,7.76539489 68.9865676,6.88212722 C68.4355948,4.83168443 66.7932719,3.09669437 64.7906976,2.45527381 C64.1231728,2.23445689 63.7947082,2.19239653 62.7245495,2.19239653 C61.6120082,2.20291162 61.357713,2.23445689 60.6584013,2.48681908 C59.1432261,3.03360383 57.765794,4.22180914 57.1088648,5.55722572 C56.473127,6.84006686 56.2506187,8.77484365 56.5790833,10.078715 C57.1512474,12.3289445 58.9631003,14.1585704 61.1881829,14.7474155 C62.1523854,14.9997777 63.3285005,15.0208078 64.260916,14.7999909 Z" id="Shape"></path>
                            <path d="M60.9693442,14.0944916 C59.8925377,13.8672134 58.995199,13.4027753 58.2245434,12.6715323 C57.4116601,11.9007627 57.0316108,11.2683363 56.7465738,10.2307618 C56.3770814,8.89673743 56.5565491,7.3749615 57.2110785,6.14963542 C57.8761649,4.934191 59.3858053,3.85708985 60.8743319,3.52111335 C63.8091573,2.87880532 66.8073243,4.55868785 67.5674229,7.27614488 C67.8946876,8.45206264 67.704663,10.3196967 67.1768167,11.3276263 C66.0683394,13.4225386 63.3974372,14.608338 60.9693442,14.0944916 Z M61.6027597,12.2565025 C61.6027597,12.2070942 61.6872152,12.1774492 61.7927844,12.1873308 C62.1939476,12.2169758 62.4578708,12.1675675 62.3945292,12.0588692 C62.3523015,11.9995793 62.3839723,11.9600526 62.4578708,11.9798159 C62.7640216,12.0094609 62.9857171,11.9699343 62.9223755,11.8711177 C62.8590339,11.7821827 63.0068309,11.7327744 63.2179694,11.7624194 C63.2601971,11.7624194 63.2918679,11.7327744 63.2918679,11.6734844 C63.2918679,11.6240761 63.3235387,11.5845495 63.3763233,11.5944311 C63.5346772,11.6339578 64.8648499,10.2801701 64.8015083,10.1319452 C64.7698375,10.0627735 64.8226222,9.97383858 64.9070776,9.93431193 C65.0020899,9.90466695 65.0443176,9.81573199 65.0126468,9.73667869 C64.9809761,9.66750706 65.0337607,9.56869044 65.1393299,9.53904545 C65.2343423,9.49951881 65.2871269,9.41058385 65.2554561,9.34141222 C65.2237854,9.26235892 65.2448992,9.20306895 65.3082408,9.20306895 C65.3715823,9.20306895 65.3926962,9.11413399 65.3504685,8.99555405 C65.2976838,8.83744746 65.3082408,8.80780247 65.4032531,8.85721078 C65.5088224,8.91650075 65.5299362,8.85721078 65.4771516,8.6200509 C65.4349239,8.44218098 65.4454808,8.32360104 65.4877085,8.35324602 C65.5299362,8.37300935 65.5721639,7.9184529 65.561607,7.32555319 C65.561607,6.74253513 65.5193793,6.27809702 65.4665947,6.30774201 C65.4243669,6.33738699 65.41381,6.26821536 65.4560377,6.14963542 C65.4982654,6.02117381 65.4771516,5.94212052 65.4032531,5.94212052 C65.3293546,5.94212052 65.2976838,5.87294888 65.3399115,5.79389559 C65.3715823,5.71484229 65.3504685,5.64567066 65.2871269,5.64567066 C65.2237854,5.64567066 65.2132284,5.60614401 65.2448992,5.54685404 C65.27657,5.49744573 65.2132284,5.37886579 65.0971022,5.28004917 C64.9809761,5.19111421 64.9070776,5.08241593 64.9387484,5.04288928 C65.0126468,4.92430934 64.1258651,4.27211965 63.9675112,4.33140962 C63.8830558,4.36105461 63.7880434,4.3116463 63.7563726,4.22271134 C63.7141449,4.11401306 63.6191326,4.08436808 63.4924495,4.11401306 C63.3763233,4.15353971 63.2918679,4.13377639 63.2918679,4.06460475 C63.2918679,4.00531478 63.1862986,3.98555146 63.0279448,4.02507811 C62.8695909,4.06460475 62.7640216,4.04484143 62.7640216,3.9756698 C62.7640216,3.91637982 62.5845539,3.86697151 62.3417446,3.86697151 C62.0989353,3.86697151 61.9194675,3.91637982 61.9194675,3.9756698 C61.9194675,4.05472309 61.7716706,4.07448641 61.4444059,4.03495977 C61.1699258,3.99543312 60.9693442,4.00531478 60.9693442,4.06460475 C60.9693442,4.11401306 60.8954457,4.13377639 60.8109903,4.1041314 C60.7265349,4.06460475 60.6526364,4.08436808 60.6526364,4.14365805 C60.6526364,4.19306636 60.5365102,4.24247467 60.3887133,4.24247467 C60.2409163,4.24247467 60.0508916,4.3116463 59.9769932,4.41046292 C59.9030947,4.50927954 59.7869685,4.55868785 59.7236269,4.5191612 C59.6602854,4.48951622 59.4597038,4.60809616 59.2696791,4.77608441 C59.0796544,4.95395433 58.9529713,5.04288928 59.005756,4.98359931 C59.142996,4.75632109 59.0163129,4.84525604 58.5940358,5.26028584 C58.3617835,5.48756407 58.2456573,5.635789 58.3301127,5.58638069 C58.4145681,5.54685404 58.3406696,5.65555232 58.150645,5.82354057 C57.9606203,6.00141049 57.8339372,6.20892539 57.865608,6.28797868 C57.8972787,6.35715032 57.8233803,6.51525691 57.6966971,6.63383685 C57.580571,6.74253513 57.5066725,6.8808784 57.5383433,6.93028671 C57.580571,6.98957668 57.5489002,7.02910333 57.4855586,7.02910333 C57.4116601,7.02910333 57.3905463,7.10815662 57.432774,7.22673657 C57.4750017,7.34531651 57.4538878,7.4243698 57.3799894,7.4243698 C57.3060909,7.4243698 57.284977,7.5034231 57.3272047,7.62200304 C57.3588755,7.73070132 57.3588755,7.81963628 57.3060909,7.81963628 C57.2638632,7.81963628 57.2216355,8.28407439 57.2216355,8.85721078 C57.2216355,9.43034717 57.2533063,9.89478528 57.295534,9.89478528 C57.3272047,9.89478528 57.3377617,9.98372024 57.3060909,10.0924185 C57.2744201,10.2011168 57.3060909,10.2900518 57.3694324,10.2900518 C57.4222171,10.2900518 57.4538878,10.3493417 57.4222171,10.428395 C57.3905463,10.4975667 57.4433309,10.5865016 57.5383433,10.6260283 C57.6439125,10.6655549 57.6966971,10.7446082 57.6544694,10.8434248 C57.6227987,10.9224781 57.6333556,10.9620048 57.6966971,10.9323598 C57.7917095,10.8829515 57.8444941,10.9916498 57.8233803,11.189283 C57.8128233,11.218928 57.9817341,11.3967979 58.1928727,11.5845495 C58.4040112,11.772301 58.5412512,11.8513543 58.4990235,11.772301 C58.4462389,11.6833661 58.4779097,11.6932478 58.572922,11.7920644 C58.6573774,11.890881 58.7523897,11.9402893 58.7840605,11.9007627 C58.8262882,11.8711177 58.857959,11.890881 58.857959,11.9600526 C58.857959,12.0292243 58.9107436,12.0489876 58.9635283,12.0193426 C59.0268698,11.9896976 59.0690975,12.0094609 59.0690975,12.0687509 C59.0690975,12.1379225 59.142996,12.1675675 59.2274514,12.1280409 C59.3119068,12.0983959 59.3858053,12.1181592 59.3858053,12.1774492 C59.3858053,12.2466208 59.5124884,12.2565025 59.7025131,12.2169758 C59.8819808,12.1774492 60.0192209,12.1972125 60.0192209,12.2466208 C60.0192209,12.3059108 60.3675994,12.3454374 60.8109903,12.3454374 C61.2438243,12.3454374 61.6027597,12.3059108 61.6027597,12.2565025 Z" id="Shape"></path>
                            <path d="M40.5469292,15.5365702 C40.2927511,15.5158886 39.9833169,15.2883912 39.3091925,14.6576029 L38.4029924,13.7993171 L38.4250948,7.29495885 L38.4582485,0.780259774 L39.486012,0.728555813 L40.5027243,0.676851852 L41.386822,1.50411523 L42.2598684,2.34171939 L42.2709197,5.05100694 C42.2819709,6.74689686 42.3261758,7.73961291 42.3924831,7.70859053 C42.4477392,7.66722737 42.4698416,7.59484182 42.436688,7.54313786 C42.3924831,7.4914339 42.436688,7.41904835 42.5250977,7.38802598 C42.7019173,7.32598122 43.4423491,6.40565072 43.4091954,6.29190201 C43.387093,6.25053884 43.4755027,6.1678125 43.5970662,6.10576775 C43.7186296,6.04372299 43.7959881,5.95065586 43.7628345,5.8989519 C43.7296808,5.84724794 43.8070394,5.75418081 43.9286028,5.69213606 C44.0501662,5.63009131 44.1275248,5.53702418 44.0943711,5.48532022 C44.0612174,5.43361626 44.138576,5.34054913 44.2601394,5.27850437 C44.3817028,5.21645962 44.4590614,5.12339249 44.4259077,5.07168853 C44.3927541,5.01998457 44.4701126,4.92691744 44.591676,4.86487269 C44.7132395,4.80282793 44.8016492,4.72010159 44.7795468,4.66839763 C44.7684956,4.61669367 44.8790078,4.48226337 45.0337249,4.35817387 C45.188442,4.22374357 45.2326468,4.15135802 45.1442371,4.19272119 C45.0558273,4.23408436 45.1000322,4.16169882 45.2547493,4.0479501 C45.4094664,3.93420139 45.4868249,3.83079347 45.4315688,3.83079347 C45.2768517,3.83079347 45.5973371,3.5205697 45.7631054,3.5205697 C45.9178225,3.5205697 46.4261787,3.93420139 46.2825128,3.93420139 C46.2272567,3.93420139 46.293564,4.00658693 46.4151275,4.09965406 C46.5366909,4.1823804 46.6361519,4.29612912 46.6361519,4.34783308 C46.6361519,4.39953704 46.7356129,4.51328575 46.8571763,4.60635288 C46.9787397,4.69942001 47.0008422,4.75112397 46.9124324,4.7097608 C46.8240226,4.66839763 46.8571763,4.73044239 46.989791,4.8441911 C47.1224056,4.95793981 47.2108154,5.07168853 47.1887129,5.09237011 C47.1555593,5.12339249 47.3213276,5.31986754 47.542352,5.54736497 C47.7744276,5.7645216 47.8849398,5.9092927 47.7965301,5.85758873 C47.7081203,5.81622557 47.7523252,5.87827032 47.8959911,5.99201903 C48.0396569,6.11610854 48.1059643,6.20917567 48.0617594,6.20917567 C48.0065033,6.20917567 48.0617594,6.28156121 48.1833228,6.37462834 C48.3048862,6.45735468 48.4043472,6.5607626 48.4043472,6.60212577 C48.4043472,6.64348894 48.5480131,6.79860082 48.7137814,6.9640535 C48.8906009,7.11916538 48.9900619,7.28461806 48.9569083,7.34666281 C48.9237546,7.39836677 49.0011131,7.4914339 49.1226766,7.55347865 C49.24424,7.61552341 49.3326498,7.70859053 49.3105473,7.7602945 C49.2994961,7.81199846 49.3879059,7.92574717 49.5094693,8.0188143 C49.6310327,8.11188143 49.6531352,8.1532446 49.5647254,8.11188143 C49.4210595,8.03949588 49.4210595,8.06017747 49.5536742,8.20494856 C49.6310327,8.29801569 49.7415449,8.38074203 49.796801,8.38074203 C49.8520571,8.38074203 49.896262,6.68485211 49.896262,4.55464892 L49.896262,0.738896605 L50.9240256,0.707874228 L51.9407379,0.676851852 L52.8579892,1.49377443 L53.7641893,2.32103781 L53.7641893,8.9391448 L53.7641893,15.5675926 L53.3221405,15.5572518 C53.0679624,15.546911 52.8137843,15.4745255 52.7364258,15.3917991 C52.5264526,15.1539609 51.2887159,14.3266975 51.3771256,14.4921502 C51.4213305,14.5748765 51.3771256,14.5438542 51.2887159,14.4404462 C51.1892549,14.3266975 51.0345378,14.2232896 50.9350768,14.2129488 C50.747206,14.1819264 50.0730816,13.5718197 50.0620303,13.4270486 C50.0620303,13.3856854 49.9625694,13.2822775 49.8410059,13.1892104 C49.7194425,13.0961433 49.6973401,13.0444393 49.7857498,13.0858025 C49.8741596,13.1271656 49.8078523,13.0237577 49.6199815,12.8789866 C49.443162,12.7238747 49.3658034,12.6308076 49.4542132,12.6721708 C49.542623,12.7031932 49.4763156,12.610126 49.2884449,12.4653549 C49.1116253,12.3102431 49.0342668,12.2171759 49.1226766,12.2585391 C49.2110863,12.2895615 49.144779,12.1964943 48.9569083,12.0517233 C48.7800887,11.8966114 48.7027302,11.8035442 48.7911399,11.8449074 C48.8795497,11.8862706 48.8021912,11.7828627 48.6143204,11.61741 C48.4264497,11.4622981 48.2054252,11.2348007 48.1170155,11.1313927 C47.9844008,10.9555993 47.9844008,10.9349177 48.1280667,11.0073032 C48.2164765,11.0486664 48.194374,11.0073032 48.0728106,10.9142361 C47.9512472,10.821169 47.8517862,10.7074203 47.8517862,10.6453755 C47.8517862,10.5936716 47.7744276,10.5006044 47.6860179,10.4489005 C47.5976081,10.3971965 47.5202496,10.3041294 47.5202496,10.2524254 C47.5202496,10.1903807 47.4207886,10.0766319 47.2992251,9.98356481 C47.1776617,9.89049769 47.1555593,9.83879372 47.243969,9.88015689 C47.3323788,9.92152006 47.2660715,9.81811214 47.0782007,9.67334105 C46.9013812,9.51822917 46.8240226,9.42516204 46.9124324,9.46652521 C47.0008422,9.49754758 46.9345348,9.40448045 46.7466641,9.25970936 C46.5698446,9.10459748 46.492486,9.01153035 46.5808958,9.06323431 C46.691408,9.11493827 46.6803568,9.06323431 46.5366909,8.91846322 C46.4261787,8.79437371 46.2825128,8.72198817 46.2272567,8.75301055 C46.1720006,8.78403292 46.1498982,8.83573688 46.1830518,8.86675926 C46.2162055,8.89778164 46.1277957,9.01153035 45.9951811,9.12527906 C45.8625664,9.23902778 45.8294128,9.29073174 45.9178225,9.24936857 C46.0614884,9.17698302 46.0614884,9.19766461 45.9288738,9.37345808 C45.840464,9.476866 45.6194396,9.70436343 45.4315688,9.85947531 C45.2436981,10.024928 45.1663395,10.1283359 45.2547493,10.0869727 C45.343159,10.0456096 45.2768517,10.1386767 45.088981,10.2937886 C44.9121614,10.4385597 44.8348029,10.5316268 44.9232127,10.5006044 C45.0116224,10.4592413 44.9453151,10.5523084 44.7574443,10.7074203 C44.5806248,10.8521914 44.5032663,10.9452585 44.591676,10.9142361 C44.6800858,10.8728729 44.6137785,10.9659401 44.4259077,11.121052 C44.2490882,11.265823 44.1717296,11.3588902 44.2601394,11.3278678 C44.3485492,11.2865046 44.2822418,11.3795718 44.0943711,11.5346836 C43.9175516,11.6794547 43.840193,11.7725219 43.9286028,11.7311587 C44.0170125,11.6794547 43.9065003,11.8242258 43.6744247,12.0310417 C43.4423491,12.2481983 43.287632,12.4653549 43.3207856,12.5170589 C43.3539393,12.5687629 43.2765808,12.66183 43.1550173,12.7238747 C43.0334539,12.7859195 42.9450441,12.8686458 42.9671466,12.9203498 C42.9781978,12.9720538 42.8676856,13.1064841 42.7129685,13.2305736 C42.5582514,13.3650039 42.5140465,13.4270486 42.6024563,13.3856854 C42.690866,13.3339815 42.5803538,13.4787526 42.3593294,13.6855684 C42.1272538,13.9027251 41.9504343,14.1095409 41.9614855,14.1509041 C41.9725367,14.1922672 41.8288708,14.3784015 41.6410001,14.5748765 C41.4420781,14.7713516 41.3094634,14.9678266 41.3426171,15.0091898 C41.3647196,15.050553 41.287361,15.1436201 41.1657976,15.2056649 C41.0442341,15.2677096 40.9668756,15.3607767 41.0000293,15.4124807 C41.088439,15.5365702 40.9447732,15.5779334 40.5469292,15.5365702 Z M41.6631025,13.70625 C43.7959881,10.9142361 46.9566373,6.94337191 47.0229446,6.98473508 C47.0560983,7.00541667 48.4043472,8.72198817 50.0178255,10.8004874 C51.6202525,12.8789866 52.9685014,14.5748765 53.0237575,14.5748765 C53.0679624,14.5852173 53.1011161,11.9586561 53.1011161,8.74266975 L53.1011161,2.90012217 L52.7143233,2.90012217 L52.3275306,2.90012217 L52.3054282,7.71893133 L52.2722745,12.5377405 L49.6310327,9.15630144 C47.2218666,6.08508616 46.9676885,5.79554398 46.8350739,5.97133745 C46.7466641,6.07474537 45.5531322,7.58450103 44.1717296,9.33209491 L41.6631025,12.5170589 L41.6299489,7.70859053 L41.6078464,2.90012217 L41.2210537,2.90012217 L40.834261,2.90012217 L40.834261,8.74266975 C40.834261,11.9586561 40.8674146,14.5852173 40.9226707,14.5852173 C40.9668756,14.5748765 41.2984122,14.1819264 41.6631025,13.70625 Z" id="Shape"></path>
                            <path d="M86.7647564,15.5114197 C86.7329957,15.4906015 85.9495662,15.4593741 85.0285072,15.4593741 L83.3346055,15.448965 L82.5194154,14.6474622 L81.6936383,13.8459594 L81.6936383,7.26739085 L81.6936383,0.678413221 L82.6676318,0.678413221 L83.6416252,0.678413221 L84.4779892,1.49032516 C85.32494,2.29182796 85.32494,2.29182796 85.3037662,2.79146608 C85.2931793,3.06210339 85.3143531,3.28069507 85.3672875,3.28069507 C85.4096351,3.28069507 85.5896121,3.13496728 85.7484154,2.94760299 C85.9178056,2.7602387 86.0236744,2.67696568 85.9813269,2.7602387 C85.9495662,2.84351172 86.0871957,2.72901131 86.2989334,2.50001051 C86.5106711,2.27100971 86.6588875,2.15650931 86.61654,2.23978233 C86.5847793,2.32305535 86.7224088,2.20855495 86.9341465,1.97955414 C87.1458843,1.75055334 87.2941006,1.63605294 87.2517531,1.71932596 C87.2199925,1.80259898 87.357622,1.68809858 87.5693597,1.45909777 C87.7810974,1.23009697 87.9293138,1.11559657 87.8869662,1.19886959 C87.8552056,1.28214261 87.9716613,1.18846046 88.1622252,0.990687042 C88.3422023,0.792913622 88.458658,0.699231476 88.4057236,0.782504495 C88.3316154,0.917823151 88.3527892,0.917823151 88.4904187,0.80332275 C88.6174613,0.709640603 88.9880023,0.668004094 89.7079105,0.678413221 L90.7454253,0.699231476 L91.3488777,1.28214261 C91.6770712,1.59441643 91.9311564,1.89628112 91.9099826,1.93791763 C91.878222,1.97955414 91.9311564,2.06282716 92.0158515,2.13569105 C92.2064154,2.29182796 92.2170023,2.51041964 92.0476122,2.61451091 C91.973504,2.66655655 91.9523302,2.63532917 92.0052646,2.54164702 C92.0476122,2.458374 91.9311564,2.56246528 91.7511794,2.7602387 C91.5712023,2.95801212 91.4441597,3.05169426 91.4865072,2.96842124 C91.5288548,2.88514823 91.4018122,2.97883037 91.2218351,3.17660379 C91.0418581,3.37437721 90.9148154,3.46805936 90.957163,3.38478634 C90.9995105,3.30151332 90.8724679,3.39519547 90.6924908,3.59296889 C90.5125138,3.79074231 90.3854712,3.88442445 90.4278187,3.80115143 C90.4701662,3.71787842 90.3431236,3.81156056 90.1631466,4.00933398 C89.9831695,4.2071074 89.8561269,4.30078955 89.8984744,4.21751653 C89.940822,4.13424351 89.8137794,4.22792566 89.6338023,4.42569908 C89.4538253,4.6234725 89.3267826,4.71715464 89.3691302,4.63388162 C89.4008908,4.55060861 89.2844351,4.64429075 89.0938712,4.84206417 C88.9138941,5.03983759 88.7974384,5.13351974 88.8397859,5.05024672 C88.8821334,4.95656457 88.829199,4.98779196 88.7021564,5.10229236 C88.458658,5.34170229 88.3633761,5.6123396 88.5221793,5.62274873 C88.5857007,5.62274873 88.7974384,5.78929476 88.9880023,5.98706818 C89.1891531,6.1848416 89.2844351,6.2577055 89.19974,6.14320509 C89.1256318,6.02870469 89.4008908,6.2577055 89.8243662,6.66366146 C90.5654482,7.37148213 90.7877728,7.63171031 90.396058,7.32984562 C90.2901892,7.2465726 90.4066449,7.37148213 90.6501433,7.60048293 C90.8936417,7.82948373 91.1159662,8.08971191 91.13714,8.17298493 C91.1583138,8.25625795 91.232422,8.38116748 91.3171171,8.44362225 C91.4018122,8.50607701 91.4759204,8.65180479 91.4865072,8.75589607 C91.5182679,9.14103378 91.7723531,10.2027648 91.8676351,10.3797199 C92.0052646,10.629539 91.9840908,11.2957231 91.8464613,11.2957231 C91.78294,11.2957231 91.7511794,11.4206327 91.7617663,11.5871787 C91.78294,11.7433156 91.7617663,11.9306799 91.7194187,12.0035438 C91.6664843,12.0659986 91.6558974,12.1700898 91.6876581,12.2221355 C91.7300056,12.2741811 91.7088318,12.3366359 91.6453105,12.3574541 C91.5923761,12.3678633 91.5182679,12.5448184 91.4970941,12.7425919 C91.4759204,12.9403653 91.3700515,13.1693661 91.2641826,13.24223 C91.1477269,13.325503 91.0630318,13.4295943 91.0630318,13.492049 C91.0630318,13.5440947 90.9889236,13.6377768 90.9042285,13.6898224 C90.8195335,13.7418681 90.7454253,13.8459594 90.7454253,13.9188232 C90.7454253,13.9916871 90.681904,14.0541419 90.6077958,14.0541419 C90.5336876,14.0541419 90.3537105,14.1998697 90.2054941,14.3664157 C90.0572777,14.5433709 89.9619957,14.6058257 90.0043433,14.5225526 C90.0466908,14.4288705 90.0149302,14.4392796 89.9196482,14.55378 C89.8243662,14.6578713 89.7290843,14.7411443 89.6867367,14.7307352 C89.5914548,14.6995078 88.9985892,14.959736 88.9985892,15.0325999 C88.9985892,15.0638273 88.8715466,15.1054638 88.7127433,15.1158729 C88.55394,15.1158729 88.4057236,15.1783277 88.3845498,15.2303733 C88.373963,15.2824189 88.2575072,15.3136463 88.1516384,15.2824189 C88.0351826,15.2511916 87.9399007,15.2720098 87.9399007,15.3344646 C87.9399007,15.4073285 87.7916843,15.4281467 87.5693597,15.3865102 C87.3258613,15.3448737 87.1988187,15.365692 87.1988187,15.448965 C87.1988187,15.5634654 86.8600384,15.615511 86.7647564,15.5114197 Z M87.632881,14.8348265 C89.2209138,14.5433709 90.5760351,13.4608216 91.0100974,12.1388625 C91.4865072,10.6711755 91.13714,9.04735163 90.120799,8.02725715 C89.2526744,7.15289045 88.2998548,6.74693448 86.7859302,6.62202495 L86.0025006,6.55957019 L88.1622252,4.8524733 C90.9465761,2.65614742 90.7348384,2.86432997 90.1419728,2.86432997 C89.665563,2.86432997 89.5914548,2.91637561 87.3046875,4.7379729 C86.0130875,5.76847651 84.9120515,6.61161583 84.859117,6.61161583 C84.8061826,6.61161583 84.7638351,5.79970389 84.7638351,4.7379729 L84.7638351,2.86432997 L84.3932941,2.86432997 L84.0227531,2.86432997 L84.0227531,8.90162385 L84.0227531,14.9389177 L85.5472646,14.9389177 C86.3836285,14.9389177 87.3258613,14.8972812 87.632881,14.8348265 Z" id="Shape"></path>
                            <path d="M84.4865832,10.4912037 L84.4865832,6.76851852 L85.5656215,6.76851852 C88.2110056,6.77930891 89.8933771,7.56700751 90.5083128,9.09924316 C90.8331846,9.89773215 90.8563897,11.0523041 90.5779282,11.8507931 C90.3342744,12.509007 89.5336976,13.3722383 88.860749,13.6959501 C88.1761979,14.0196618 86.9927366,14.2138889 85.6816471,14.2138889 L84.4865832,14.2138889 L84.4865832,10.4912037 Z M86.4590187,12.0342297 C86.4590187,11.9802778 86.5402367,11.958697 86.6446597,11.9910682 C86.7606853,12.0342297 86.795493,12.012649 86.7374802,11.9263258 C86.6794674,11.8400027 86.7142751,11.8292123 86.8419033,11.8723739 C86.9463263,11.904745 87.1087622,11.8615835 87.2131853,11.7752603 C87.3060058,11.6781468 87.3872237,11.6457756 87.3872237,11.6889372 C87.3872237,11.8184219 88.3154286,10.8688674 88.3270312,10.7285923 C88.3386338,10.6530596 88.3386338,10.5667364 88.3270312,10.5235749 C88.3270312,10.4696229 88.3734414,10.4372517 88.4430568,10.4372517 C88.5126722,10.4372517 88.5358773,10.3401382 88.4894671,10.2214439 C88.4430568,10.1027496 88.4662619,10.0056361 88.5358773,10.0056361 C88.6054927,10.0056361 88.6635055,9.78982823 88.6635055,9.52006844 C88.6635055,9.25030864 88.6170952,9.03450081 88.570685,9.03450081 C88.5126722,9.03450081 88.4662619,8.89422571 88.4662619,8.72157944 C88.4662619,8.49498121 88.3386338,8.28996377 88.013762,7.99862319 C87.7701082,7.77202496 87.4916467,7.59937869 87.4220314,7.62095947 C87.3408134,7.63174987 87.2711981,7.5885883 87.2711981,7.52384595 C87.2711981,7.4483132 87.1783776,7.42673242 87.0391468,7.46989399 C86.9115186,7.51305556 86.8070956,7.49147477 86.8070956,7.42673242 C86.8070956,7.35119968 86.4822239,7.30803811 85.9717111,7.30803811 L85.1247241,7.30803811 L85.1247241,9.71429549 L85.1247241,12.1097625 L85.7976727,12.1313433 C86.2037624,12.1421337 86.4590187,12.1097625 86.4590187,12.0342297 Z" id="Shape"></path>
                            <path d="M17.1648947,14.9786932 C16.8553655,14.6842436 16.6342732,14.410826 16.667437,14.3687618 C16.7006009,14.3266975 16.6895462,14.3161815 16.6453278,14.3477297 C16.6121639,14.3792778 16.4573993,14.2951494 16.3136893,14.1689566 L16.0594332,13.9481194 L16.0594332,7.31248561 L16.0594332,0.676851852 L19.4532001,0.697883972 L22.846967,0.718916091 L23.6207901,1.48658846 L24.4056678,2.25426083 L23.5765716,1.51813664 L22.7364208,0.78201245 L23.5986808,1.61278118 C24.4719954,2.45406597 24.5935962,2.6538711 24.284067,2.76954776 C24.1845754,2.80109594 22.846967,2.83264412 21.2993208,2.83264412 L18.4914485,2.83264412 L18.4914485,9.19486033 L18.4914485,15.5675926 L18.104537,15.5360444 C17.8060624,15.5150123 17.5960247,15.3993356 17.1648947,14.9786932 Z" id="Path"></path>
                            <path d="M19.5506143,9.81435185 L19.5506143,4.06111111 L22.1575117,4.06111111 C23.5978522,4.06111111 24.8477346,4.09086925 24.9548673,4.12062739 C25.2048438,4.19998244 25.1929401,4.45788633 24.9429637,4.61659642 C24.7763127,4.71579023 24.1573234,4.74554837 22.4431991,4.75546775 L20.1457963,4.75546775 L20.1457963,10.1615302 L20.1457963,15.5675926 L19.8482053,15.5675926 L19.5506143,15.5675926 L19.5506143,9.81435185 Z" id="Path"></path>
                            <path d="M71.9099682,15.3501339 C71.8277099,15.2569374 71.7865807,15.1430304 71.8277099,15.0912546 C71.8791214,15.0498339 71.8585568,15.0394787 71.796863,15.0705442 C71.7351693,15.1016097 71.5295234,14.9669925 71.3341598,14.759889 C71.1387963,14.5424303 71.0771025,14.4388786 71.1902077,14.52172 C71.3855713,14.6666924 71.3855713,14.6666924 71.2519015,14.4906545 C71.1696432,14.3974579 71.0873848,14.3353268 71.0565379,14.3663924 C71.0256911,14.3974579 70.8920213,14.3146165 70.7583514,14.1903544 L70.5218587,13.9728957 L70.5218587,9.48910524 C70.5218587,6.34113223 70.5527056,4.98460439 70.6349639,4.93282852 C70.6966577,4.90176299 70.7275046,4.7360802 70.6863754,4.57039741 C70.6555285,4.39435945 70.6760931,4.27009736 70.7377869,4.27009736 C70.7994806,4.27009736 70.8200452,4.17690079 70.778916,4.06299387 C70.7377869,3.93873178 70.7583514,3.85589038 70.8303275,3.85589038 C70.8920213,3.85589038 70.9125858,3.80411451 70.881739,3.75233864 C70.8508921,3.70056277 70.8714567,3.6487869 70.9331504,3.6487869 C71.0051265,3.6487869 71.0359734,3.57630067 70.9948442,3.49345928 C70.9639973,3.41061788 70.9845619,3.33813166 71.0462556,3.33813166 C71.1079494,3.33813166 71.1182317,3.28635579 71.0771025,3.21386957 C71.0359734,3.15173853 71.0668202,3.04818678 71.1490786,2.98605574 C71.3855713,2.7996626 71.7146047,2.36474527 71.550088,2.45794184 C71.4678296,2.50971771 71.6323463,2.32332458 71.9099682,2.04373487 C72.1978724,1.76414516 72.4549297,1.52597615 72.5063412,1.51562098 C72.5474704,1.5052658 72.6194464,1.49491063 72.6605756,1.48455545 C72.7119871,1.48455545 72.8353746,1.39135888 72.9484798,1.29816231 C73.0513027,1.19461057 73.236384,1.09105883 73.3494892,1.08070365 C73.4625944,1.0599933 73.5654174,0.997862257 73.5859819,0.95644156 C73.6065465,0.904665688 73.6785226,0.883955339 73.7607809,0.915020862 C73.832757,0.946086385 73.9252976,0.925376037 73.9561445,0.873600165 C73.9869914,0.811469119 74.1103789,0.79075877 74.2234841,0.821824293 C74.3365893,0.852889816 74.42913,0.832179467 74.42913,0.770048421 C74.42913,0.718272549 74.7273164,0.676851852 75.097479,0.676851852 C75.4779238,0.676851852 75.765828,0.718272549 75.765828,0.780403596 C75.765828,0.832179467 75.8994978,0.852889816 76.0742968,0.821824293 C76.2388135,0.780403596 76.4033302,0.801113944 76.434177,0.852889816 C76.4650239,0.904665688 76.5575645,0.925376037 76.6398229,0.883955339 C76.7220812,0.852889816 76.7940573,0.883955339 76.7940573,0.95644156 C76.7940573,1.01857261 76.8454687,1.03928295 76.8968802,1.00821743 C76.958574,0.977151909 76.9997031,0.987507083 76.9997031,1.03928295 C76.9997031,1.1428347 77.5755115,1.42242441 77.6577699,1.36029336 C77.6886167,1.33958301 77.7811574,1.41206923 77.8634157,1.52597615 C77.9559564,1.63988307 78.0279324,1.70201411 78.0279324,1.65023824 C78.0279324,1.60881754 78.1718845,1.72272446 78.3466835,1.9091176 C78.5317648,2.09551074 78.6140231,2.15764179 78.5317648,2.04373487 C78.4597887,1.92982795 78.6140231,2.04373487 78.8813627,2.30261423 C79.3749128,2.76859707 79.5188649,2.97570056 79.1795492,2.70646603 C79.0767263,2.62362463 79.1795492,2.74788673 79.4057596,2.96534539 C79.6422524,3.19315922 79.7656399,3.33813166 79.6833815,3.28635579 C79.6011232,3.23457992 79.6730992,3.37955236 79.8376159,3.6073662 C80.0021326,3.82482486 80.1666493,4.03192835 80.2180608,4.04228352 C80.2591899,4.06299387 80.2694722,4.11476974 80.2386253,4.16654561 C80.2077785,4.21832149 80.2386253,4.31151805 80.3106014,4.39435945 C80.3825774,4.46684567 80.4648358,4.62217329 80.4751181,4.7360802 C80.4956827,4.84998712 80.5573764,4.95353887 80.5985056,4.97424921 C80.6499171,4.99495956 80.6601993,5.07780096 80.6293525,5.16064235 C80.5985056,5.24348375 80.6293525,5.30561479 80.7013285,5.30561479 C80.7733046,5.30561479 80.7938692,5.38845619 80.75274,5.51271828 C80.7116108,5.6266252 80.7321754,5.71982177 80.7938692,5.71982177 C80.8555629,5.71982177 80.8761275,5.84408386 80.8452806,6.030477 C80.8041514,6.22722531 80.824716,6.34113223 80.8966921,6.34113223 C80.9789504,6.34113223 81.0097973,7.55268763 80.9892327,10.9284745 L80.9583858,15.5054615 L80.6499171,15.5054615 L80.3414483,15.5054615 L80.2900368,10.5349778 L80.2386253,5.56449415 L79.9610034,4.97424921 C79.4057596,3.77304899 78.7065637,3.17244887 77.5138178,2.86179364 C75.8069572,2.42687632 74.0692497,3.18280405 73.2877955,4.70501468 C72.8250923,5.60591485 72.7839631,6.13402874 72.7839631,10.9802503 L72.7839631,15.5675926 L72.4240829,15.5365271 C72.218437,15.5261719 71.9922266,15.4433305 71.9099682,15.3501339 Z" id="Path"></path>
                            <path d="M73.3461199,10.6609942 L73.3774361,5.74400044 L73.669721,5.10988497 C74.2229747,3.92481671 75.0789519,3.38425926 76.4046729,3.38425926 C77.4067927,3.39465459 78.0853112,3.67532866 78.6907586,4.35102547 C79.5362972,5.28660568 79.5258584,5.20344299 79.5676134,10.7129709 L79.5989296,15.5675926 L79.3066447,15.5675926 C79.0769923,15.5675926 78.8264623,15.3908719 78.2001375,14.7567564 L77.3963539,13.9563156 L77.3963539,9.61106529 C77.3963539,6.74195266 77.3650377,5.27621034 77.2919664,5.27621034 C77.2293339,5.27621034 77.2084564,5.16186165 77.2502114,5.01632695 C77.2919664,4.85000158 77.2710889,4.75644356 77.187579,4.75644356 C77.1249465,4.75644356 77.104069,4.71486222 77.1353852,4.6524902 C77.1667015,4.60051353 77.145824,4.54853685 77.0727527,4.54853685 C76.9996815,4.54853685 76.978804,4.51735084 77.0101202,4.4757695 C77.1249465,4.37181614 76.7700291,4.0391654 76.6030091,4.10153742 C76.5194991,4.13272342 76.4568666,4.10153742 76.4568666,4.0391654 C76.4568666,3.97679339 76.2794079,3.92481671 76.0393167,3.92481671 C75.7992255,3.92481671 75.6217668,3.97679339 75.6217668,4.0391654 C75.6217668,4.10153742 75.5486956,4.13272342 75.4651856,4.09114208 C75.3816756,4.05995607 75.3086044,4.09114208 75.3086044,4.15351409 C75.3086044,4.21588611 75.2772882,4.23667678 75.2355332,4.20549077 C75.2042169,4.16390943 75.1102682,4.21588611 75.0267582,4.31983946 C74.9328095,4.42379282 74.9014932,4.43418816 74.953687,4.34063014 C74.995442,4.25746745 74.8806157,4.31983946 74.703157,4.48616483 C74.3482396,4.80842024 74.2856071,4.92276893 74.5048208,4.7980249 C74.5674533,4.75644356 74.5256983,4.82921091 74.3899946,4.95395494 C74.2647296,5.07869896 74.1812197,5.22423366 74.2125359,5.27621034 C74.2438521,5.31779168 74.2125359,5.3801637 74.1394647,5.40095437 C74.0559547,5.43214037 74.0141997,5.61925642 74.0141997,5.87913981 C74.0246384,6.11823252 73.9933222,6.3157439 73.9411285,6.3157439 C73.8889347,6.3157439 73.8471797,8.38441569 73.8471797,10.9416682 L73.8471797,15.5675926 L73.5862111,15.5675926 L73.3148036,15.5675926 L73.3461199,10.6609942 Z" id="Path"></path>
                        </g>
                    </g>
                </g>
            </g>
        </g>
    </g>
</svg>